<svg width="341" height="36" viewBox="0 0 341 36" fill="none" xmlns="http://www.w3.org/2000/svg">
<path d="M32.89 2.47876V35.3725H29.0687V14.6892L29.5206 6.01811H29.4721L18.5542 35.3725H15.1332L4.21528 6.01811H4.16373L4.61864 14.6892V35.3725H0.797363V2.47876H6.98419L14.278 22.465L16.7952 30.6854H16.8952L19.461 22.5131L26.7032 2.47876H32.89Z" fill="white"/>
<path d="M54.9746 19.2741C54.9746 17.4153 54.4691 15.9782 53.4582 14.9626C52.4473 13.9471 51.0229 13.4403 49.185 13.4423C47.6318 13.3932 46.0963 13.7818 44.7572 14.563C43.5441 15.3102 42.6555 16.512 42.0914 18.1685L38.8221 16.1765C39.5072 14.2976 40.8202 12.7073 42.5433 11.6696C44.3629 10.5219 46.6102 9.94804 49.2851 9.94804C50.9736 9.92607 52.6494 10.2397 54.2133 10.8704C55.6314 11.4387 56.848 12.4098 57.7101 13.6617C58.5654 14.9075 58.993 16.51 58.993 18.4689V30.5322C58.993 31.734 59.6299 32.3349 60.9036 32.3349C61.5328 32.3354 62.1592 32.2515 62.7657 32.0855L62.5656 35.2253C61.743 35.5872 60.8477 35.7578 59.9483 35.724C59.0461 35.7392 58.1522 35.5512 57.3341 35.1742C56.5679 34.8183 55.9321 34.2357 55.5144 33.5067C55.0515 32.6401 54.8267 31.6682 54.8624 30.6884V30.1927L55.8692 30.3399C55.508 31.572 54.7912 32.6727 53.807 33.5067C52.8476 34.3165 51.7352 34.9293 50.5346 35.3094C49.3818 35.682 48.1776 35.8746 46.9651 35.8803C45.5549 35.8933 44.1552 35.6405 42.8405 35.1351C41.6319 34.6809 40.5797 33.8939 39.8077 32.8667C38.9555 31.5933 38.566 30.0705 38.7032 28.5487C38.8405 27.0269 39.4963 25.5966 40.5629 24.493C41.8225 23.2912 43.5744 22.469 45.8187 22.0263L55.7782 20.0824V23.3723L47.6808 25.0158C46.037 25.3483 44.8128 25.814 44.0081 26.4129C43.6151 26.6976 43.2989 27.0737 43.0873 27.5081C42.8757 27.9425 42.7753 28.4218 42.795 28.9037C42.7843 29.39 42.8903 29.8719 43.1044 30.3096C43.3185 30.7474 43.6344 31.1285 44.0263 31.4215C44.8472 32.0705 46.0128 32.394 47.5231 32.392C48.4671 32.3965 49.4071 32.2711 50.3163 32.0194C51.1759 31.7835 51.9855 31.3957 52.7061 30.8747C53.4048 30.364 53.9729 29.6982 54.365 28.9308C54.7868 28.0694 54.9947 27.1207 54.9715 26.1636L54.9746 19.2741Z" fill="white"/>
<path d="M66.3445 35.3725V10.4528H69.6138L70.1658 14.539C70.796 13.0929 71.881 11.8872 73.2592 11.1018C74.6178 10.3386 76.2697 9.95604 78.2147 9.95404C78.6945 9.95702 79.1736 9.99014 79.6492 10.0532C80.1138 10.105 80.565 10.2405 80.9806 10.4528L80.277 14.0913C79.8831 13.9535 79.4769 13.8529 79.0639 13.7908C78.453 13.7201 77.8378 13.692 77.223 13.7067C76.1138 13.7274 75.0298 14.0384 74.081 14.6081C72.9706 15.2571 72.0579 16.1914 71.4395 17.3122C70.7359 18.526 70.3841 20.0623 70.3841 21.9211V35.3785L66.3445 35.3725Z" fill="white"/>
<path d="M94.0608 9.9541C95.6331 9.92402 97.1963 10.1954 98.6646 10.7533C99.9631 11.2685 101.137 12.0497 102.11 13.0458C103.105 14.0754 103.906 15.2731 104.475 16.5821L100.651 18.3848C100.115 16.7924 99.3014 15.5716 98.2097 14.7223C97.1179 13.873 95.7026 13.4494 93.9638 13.4514C92.4431 13.4109 90.9422 13.7995 89.636 14.5721C88.4037 15.35 87.4392 16.4806 86.8702 17.814C85.5963 21.0939 85.5963 24.7255 86.8702 28.0054C87.4343 29.3472 88.3995 30.4859 89.636 31.2683C90.9417 32.0421 92.443 32.4309 93.9638 32.389C95.1242 32.4153 96.2781 32.211 97.3574 31.7881C98.2819 31.4145 99.0957 30.815 99.723 30.0455C100.368 29.2289 100.808 28.2722 101.006 27.2543L104.727 28.5492C104.206 29.9961 103.413 31.3318 102.389 32.4852C101.404 33.5797 100.183 34.4403 98.8162 35.003C97.3073 35.607 95.691 35.9033 94.0639 35.8743C91.868 35.9124 89.7004 35.38 87.777 34.33C85.9248 33.2956 84.42 31.7452 83.4492 29.8712C82.41 27.9283 81.8904 25.6108 81.8904 22.9187C81.8904 20.2266 82.41 17.9091 83.4492 15.9662C84.4207 14.0919 85.9253 12.5408 87.777 11.5044C89.6995 10.4542 91.8656 9.91974 94.0608 9.9541Z" fill="white"/>
<path d="M119.815 9.95409C122.02 9.9115 124.197 10.4441 126.129 11.4984C127.969 12.5406 129.464 14.0909 130.43 15.9602C131.471 17.9051 131.99 20.2226 131.988 22.9127C131.986 25.6028 131.467 27.9203 130.43 29.8652C129.463 31.7334 127.969 33.2826 126.129 34.3239C124.187 35.3383 122.024 35.8684 119.828 35.8684C117.633 35.8684 115.47 35.3383 113.528 34.3239C111.677 33.2895 110.173 31.7391 109.203 29.8652C108.162 27.9223 107.641 25.6048 107.641 22.9127C107.641 20.2206 108.162 17.9031 109.203 15.9602C110.174 14.0861 111.677 12.5349 113.528 11.4984C115.452 10.4497 117.619 9.91737 119.815 9.95409ZM119.815 13.3943C118.274 13.3481 116.753 13.7457 115.436 14.539C114.203 15.3336 113.233 16.4692 112.645 17.805C111.335 21.0781 111.335 24.7233 112.645 27.9964C113.227 29.3411 114.198 30.4849 115.436 31.2833C116.77 32.0356 118.278 32.4312 119.813 32.4312C121.348 32.4312 122.857 32.0356 124.191 31.2833C125.428 30.4841 126.399 29.3405 126.981 27.9964C128.292 24.7233 128.292 21.0781 126.981 17.805C126.393 16.4699 125.423 15.3346 124.191 14.539C122.873 13.7513 121.353 13.358 119.815 13.4063V13.3943Z" fill="white"/>
<path d="M146.224 35.8682C143.878 35.8919 141.56 35.3626 139.461 34.3239C137.47 33.3615 135.814 31.832 134.706 29.9313L138.127 27.4886C138.826 28.976 139.956 30.2245 141.372 31.076C142.797 31.9413 144.516 32.3729 146.527 32.3709C148.305 32.3709 149.697 32.0304 150.704 31.3494C151.167 31.073 151.551 30.6822 151.817 30.2151C152.082 29.748 152.221 29.2206 152.22 28.6844C152.221 27.9864 151.981 27.3091 151.541 26.7645C151.088 26.1856 150.224 25.762 148.951 25.4935L142.915 24.2497C140.465 23.7509 138.712 22.9197 137.657 21.7559C136.587 20.5683 136.015 19.0207 136.058 17.4294C136.051 16.0919 136.464 14.7854 137.241 13.6917C138.101 12.5086 139.264 11.5749 140.611 10.9876C142.232 10.2744 143.993 9.92553 145.766 9.96606C148.247 9.96606 150.344 10.4478 152.056 11.4112C153.734 12.3394 155.071 13.7698 155.877 15.4974L152.508 17.6907C152.015 16.3194 151.031 15.1753 149.742 14.4759C148.524 13.8105 147.157 13.4592 145.766 13.4543C144.713 13.4296 143.664 13.5987 142.673 13.9531C141.906 14.2251 141.227 14.6987 140.711 15.3232C140.258 15.8948 140.018 16.6036 140.032 17.33C140.046 18.0565 140.312 18.7559 140.786 19.3102C141.29 19.9271 142.229 20.3678 143.604 20.6322L149.891 21.9271C152.238 22.3918 153.882 23.156 154.822 24.2196C155.765 25.2961 156.266 26.683 156.229 28.1075C156.259 29.5744 155.819 31.013 154.974 32.2177C154.083 33.4319 152.862 34.3698 151.453 34.9218C149.791 35.5805 148.013 35.9024 146.224 35.8682Z" fill="white"/>
<path d="M200.001 6.21641H180.783V16.8315H195.773V20.5691H180.783V35.3725H176.758V2.47876H200.001V6.21641Z" fill="white"/>
<path d="M212.023 35.8682C209.801 35.9098 207.606 35.3776 205.654 34.3239C203.791 33.296 202.276 31.7445 201.302 29.8652C200.263 27.9222 199.743 25.6047 199.743 22.9127C199.743 20.2206 200.263 17.9031 201.302 15.9601C202.264 14.096 203.749 12.5466 205.578 11.4984C207.466 10.4501 209.601 9.91722 211.765 9.95406C214.112 9.95406 216.116 10.4548 217.776 11.4563C219.41 12.4189 220.731 13.8256 221.582 15.5095C222.474 17.2981 222.923 19.2714 222.892 21.2662C222.892 21.831 222.874 22.3448 222.841 22.8105C222.813 23.2275 222.762 23.6428 222.689 24.0544H202.37V20.521H220.933L218.853 20.9176C218.853 18.526 218.189 16.6822 216.863 15.3863C215.537 14.0903 213.802 13.4423 211.659 13.4423C210.164 13.4051 208.691 13.7941 207.413 14.563C206.188 15.3495 205.226 16.4775 204.647 17.8049C203.952 19.4174 203.616 21.1598 203.665 22.9127C203.622 24.6597 203.965 26.3948 204.671 27.9963C205.269 29.3407 206.258 30.4771 207.513 31.2593C208.846 32.0352 210.372 32.4236 211.917 32.38C213.761 32.38 215.261 32.0314 216.417 31.3344C217.576 30.6373 218.537 29.6604 219.21 28.4951L222.38 30.3369C221.098 32.6368 218.987 34.3721 216.469 35.1952C215.035 35.6613 213.532 35.8887 212.023 35.8682Z" fill="white"/>
<path d="M228.121 35.3725V10.4528H231.39L231.942 14.539C232.572 13.0929 233.657 11.8872 235.036 11.1018C236.394 10.3386 238.046 9.95604 239.991 9.95404C240.471 9.95702 240.95 9.99014 241.426 10.0532C241.89 10.105 242.341 10.2405 242.757 10.4528L242.053 14.0913C241.659 13.9535 241.253 13.8529 240.84 13.7908C240.223 13.7141 239.6 13.681 238.978 13.6917C237.869 13.7128 236.785 14.0237 235.836 14.5931C234.726 15.242 233.813 16.1764 233.195 17.2971C232.491 18.511 232.139 20.0473 232.139 21.9061V35.3635L228.121 35.3725Z" fill="white"/>
<path d="M246.229 35.3725V10.4528H249.499L250.051 14.539C250.683 13.094 251.767 11.8889 253.144 11.1018C254.503 10.3386 256.155 9.95604 258.1 9.95404C258.579 9.95702 259.059 9.99014 259.534 10.0532C260 10.1055 260.452 10.2409 260.869 10.4528L260.162 14.0913C259.768 13.9535 259.362 13.8529 258.949 13.7908C258.332 13.7142 257.711 13.6811 257.09 13.6917C255.98 13.7124 254.895 14.0234 253.945 14.5931C252.835 15.2429 251.923 16.177 251.303 17.2971C250.6 18.511 250.248 20.0473 250.248 21.9061V35.3635L246.229 35.3725Z" fill="white"/>
<path d="M274.049 35.8682C271.827 35.9091 269.632 35.3769 267.68 34.3239C265.818 33.2951 264.303 31.7439 263.328 29.8652C262.289 27.9222 261.769 25.6047 261.769 22.9127C261.769 20.2206 262.289 17.9031 263.328 15.9601C264.291 14.0967 265.776 12.5476 267.604 11.4984C269.492 10.4501 271.627 9.91722 273.791 9.95406C276.139 9.95406 278.142 10.4548 279.802 11.4563C281.435 12.4197 282.754 13.8262 283.605 15.5095C284.494 17.2991 284.942 19.2719 284.912 21.2662C284.912 21.831 284.894 22.3448 284.864 22.8105C284.834 23.2274 284.784 23.6425 284.712 24.0544H264.393V20.521H282.953L280.891 20.9176C280.891 18.526 280.229 16.6822 278.904 15.3863C277.58 14.0903 275.844 13.4423 273.697 13.4423C272.203 13.4041 270.729 13.7932 269.451 14.563C268.227 15.3503 267.263 16.478 266.682 17.8049C265.989 19.4181 265.655 21.1601 265.703 22.9127C265.659 24.6598 266.002 26.3953 266.71 27.9963C267.307 29.3407 268.297 30.4771 269.551 31.2593C270.883 32.0355 272.408 32.424 273.952 32.38C275.796 32.38 277.297 32.0314 278.456 31.3344C279.612 30.6363 280.572 29.6596 281.246 28.4951L284.415 30.3369C283.136 32.6385 281.024 34.3745 278.504 35.1952C277.067 35.6626 275.561 35.89 274.049 35.8682Z" fill="white"/>
<path d="M292.154 5.66958C291.503 5.63073 290.884 5.37168 290.402 4.93565C289.92 4.49962 289.603 3.91297 289.505 3.27356C289.406 2.63415 289.532 1.98065 289.861 1.42206C290.19 0.863476 290.703 0.433581 291.313 0.20409C291.924 -0.0254005 292.595 -0.0406123 293.215 0.160995C293.836 0.362603 294.367 0.768836 294.722 1.31193C295.077 1.85503 295.232 2.50215 295.164 3.14535C295.095 3.78854 294.806 4.38893 294.344 4.84634C294.055 5.1245 293.712 5.34105 293.335 5.48264C292.959 5.62424 292.557 5.68786 292.154 5.66958ZM294.168 10.4528V35.3725H290.144V10.4528H294.168Z" fill="white"/>
<path d="M301.11 35.3725V10.4528H304.376L304.928 14.539C305.558 13.0946 306.641 11.8894 308.016 11.1018C309.372 10.3386 311.023 9.95604 312.968 9.95404C313.448 9.95702 313.927 9.99014 314.403 10.0532C314.868 10.1055 315.32 10.2409 315.737 10.4528L315.03 14.0913C314.637 13.9531 314.23 13.8525 313.817 13.7908C313.201 13.7142 312.58 13.6811 311.958 13.6917C310.848 13.7124 309.763 14.0234 308.813 14.5931C307.704 15.2429 306.791 16.177 306.172 17.2971C305.468 18.511 305.116 20.0473 305.116 21.9061V35.3635L301.11 35.3725Z" fill="white"/>
<path d="M333.203 19.2741C333.203 17.4153 332.697 15.9782 331.686 14.9626C330.676 13.9471 329.25 13.4403 327.41 13.4423C325.857 13.3937 324.322 13.7823 322.982 14.563C321.769 15.3102 320.881 16.512 320.317 18.1685L317.047 16.1765C317.732 14.2976 319.045 12.7073 320.769 11.6696C322.588 10.5219 324.835 9.94804 327.51 9.94804C329.2 9.92607 330.877 10.2397 332.442 10.8704C333.858 11.4395 335.074 12.4105 335.935 13.6617C336.791 14.9075 337.218 16.51 337.218 18.4689V30.5322C337.218 31.734 337.856 32.3349 339.132 32.3349C339.76 32.3355 340.385 32.2516 340.991 32.0855L340.791 35.2253C339.968 35.5875 339.073 35.7581 338.173 35.724C337.271 35.7389 336.378 35.5509 335.559 35.1742C334.792 34.8196 334.156 34.2367 333.74 33.5067C333.274 32.6409 333.048 31.6686 333.085 30.6884V30.1927L334.091 30.3399C333.73 31.572 333.013 32.6727 332.029 33.5067C331.071 34.3165 329.959 34.9293 328.76 35.3094C327.606 35.6819 326.401 35.8745 325.187 35.8803C323.777 35.8933 322.377 35.6405 321.063 35.1351C319.855 34.6801 318.803 33.8932 318.03 32.8667C317.178 31.5933 316.788 30.0705 316.925 28.5487C317.063 27.0269 317.718 25.5966 318.785 24.493C320.045 23.2912 321.798 22.469 324.044 22.0263L334.003 20.0824V23.3723L325.909 25.0038C324.265 25.3363 323.041 25.802 322.236 26.4009C321.843 26.6856 321.527 27.0617 321.316 27.4961C321.104 27.9305 321.004 28.4098 321.023 28.8917C321.013 29.3782 321.12 29.8601 321.334 30.2979C321.549 30.7356 321.865 31.1166 322.258 31.4095C323.076 32.0585 324.244 32.38 325.751 32.38C326.695 32.3844 327.635 32.259 328.544 32.0074C329.404 31.772 330.214 31.3842 330.934 30.8627C331.634 30.3528 332.202 29.6868 332.593 28.9187C333.015 28.0574 333.223 27.1086 333.2 26.1515L333.203 19.2741Z" fill="white"/>
</svg>
