<svg width="111" height="69" viewBox="0 0 111 69" fill="none" xmlns="http://www.w3.org/2000/svg">
<path d="M106.931 0.964355H3.81615C1.73366 0.964355 0.0375977 2.6604 0.0375977 4.74289V64.4981C0.0375977 66.5805 1.73366 68.2694 3.81615 68.2694H106.931C109.014 68.2694 110.71 66.5734 110.71 64.4981V4.74289C110.71 2.6604 109.014 0.964355 106.931 0.964355ZM6.52838 10.2676L37.5438 30.8849L6.52838 57.8856V10.2676ZM55.3702 34.9354L14.0282 7.45513H96.7122L55.3702 34.9354ZM43.1544 34.6062L53.2806 41.3402C53.9175 41.7625 54.6402 41.97 55.3702 41.97C56.1001 41.97 56.8229 41.7553 57.4598 41.3402L67.586 34.6062L98.7947 61.7787H11.9385L43.1472 34.6062H43.1544ZM73.1966 30.8777L104.212 10.2604V57.8785L73.1966 30.8777Z" fill="#FF0055"/>
</svg>
