<svg width="320" height="686" viewBox="0 0 320 686" fill="none" xmlns="http://www.w3.org/2000/svg">
<path opacity="0.37" d="M154.896 330.308C246.08 330.308 320 256.366 320 165.154C320 73.9421 246.08 0 154.896 0C63.711 0 -10.2087 73.9421 -10.2087 165.154C-10.2087 256.366 63.711 330.308 154.896 330.308Z" fill="url(#paint0_radial_1_84)"/>
<path d="M106.346 654.559C113.193 652.289 120.155 650.395 127.148 648.625L126.43 648.214C126.836 650.036 127.507 651.79 127.907 653.606C128.173 654.824 128.194 656.177 128.771 657.291C129.291 658.29 130.03 659.258 131.045 659.8C132.767 660.716 134.697 660.122 136.097 658.899C136.825 658.264 137.429 657.447 137.84 656.573C138.293 655.61 138.376 654.658 138.584 653.627C139.021 651.457 139.885 649.328 140.873 647.35L140.213 647.621C144.125 648.672 148.101 649.541 152.081 650.286C155.328 650.889 158.6 651.405 161.894 651.675C164.506 651.889 167.29 652.045 169.855 651.399C170.541 651.228 171.161 650.931 171.816 650.676C172.789 650.296 173.793 650.015 174.782 649.666C176.738 648.979 178.159 647.855 179.101 645.976C179.246 645.69 179.173 645.352 178.892 645.175C175.047 642.817 170.469 644.16 166.332 644.738C161.811 645.372 157.492 644.332 153.475 642.244C151.477 641.209 149.594 639.975 147.778 638.648C145.962 637.321 144.006 636.025 142.715 634.25C141.056 631.97 141.311 628.967 141.451 626.292C141.664 622.29 141.987 618.298 142.284 614.301C142.804 607.352 143.329 600.404 143.85 593.451C144.542 584.129 145.213 574.802 145.853 565.476C145.941 564.195 146.03 562.91 146.113 561.629C146.165 560.875 144.994 560.88 144.942 561.629C144.287 571.315 143.595 580.996 142.882 590.677C142.341 597.989 141.789 605.302 141.238 612.614C140.91 616.96 140.566 621.301 140.312 625.652C140.187 627.833 140.005 630.107 140.52 632.241C141.035 634.375 142.507 635.983 144.193 637.357C145.879 638.731 147.752 640.137 149.641 641.365C153.345 643.769 157.487 645.685 161.936 646.065C164.183 646.257 166.389 645.924 168.601 645.56C170.812 645.195 173.013 644.784 175.214 645.091C176.317 645.242 177.347 645.607 178.294 646.19L178.086 645.388C177.269 647.022 176.109 647.97 174.402 648.563C173.554 648.86 172.696 649.104 171.853 649.416C171.207 649.656 170.593 649.968 169.933 650.166C167.555 650.879 164.891 650.723 162.445 650.546C156.446 650.114 150.494 648.891 144.646 647.517C143.267 647.194 141.893 646.861 140.53 646.497C140.296 646.434 139.984 646.533 139.869 646.767C139.125 648.251 138.49 649.807 137.981 651.389C137.356 653.325 137.413 655.449 136.159 657.135C135.254 658.358 133.662 659.482 132.075 658.977C131.133 658.676 130.457 657.874 129.978 657.047C129.369 655.995 129.338 654.694 129.088 653.513C128.693 651.618 127.985 649.802 127.564 647.912C127.496 647.6 127.137 647.428 126.846 647.501C119.853 649.266 112.891 651.16 106.044 653.434C105.331 653.669 105.638 654.803 106.356 654.564L106.346 654.559Z" fill="#FF0055"/>
<path d="M121.133 565.752C124.26 581.647 126.57 597.708 127.73 613.869C128.017 617.861 128.235 621.858 128.386 625.86C128.464 627.88 128.521 629.899 128.558 631.913C128.594 633.927 128.729 636.004 128.589 638.023C128.459 639.866 127.6 641.162 125.982 642.031C124.364 642.9 122.678 643.332 121.029 643.915C118.5 644.81 115.982 645.732 113.453 646.627C111.736 647.236 110.009 647.819 108.24 648.271C106.153 648.808 104.025 649.187 101.902 649.567C101.163 649.698 101.476 650.827 102.215 650.697C105.805 650.057 109.311 649.297 112.766 648.105C115.097 647.298 117.413 646.445 119.738 645.617C121.487 644.992 123.261 644.42 124.994 643.749C126.45 643.186 127.907 642.453 128.818 641.136C129.806 639.71 129.801 637.899 129.791 636.233C129.775 634.12 129.739 632.002 129.687 629.889C129.578 625.704 129.395 621.525 129.135 617.351C128.631 609.158 127.834 600.987 126.773 592.852C125.576 583.666 124.052 574.527 122.262 565.439C122.116 564.7 120.987 565.013 121.133 565.752Z" fill="#FF0055"/>
<path d="M81.1419 578.352C82.7289 586.425 84.0609 594.549 85.1535 602.705C86.2462 610.86 87.1307 619.297 87.7395 627.625C88.343 635.801 88.702 643.998 88.7593 652.201C88.7749 654.064 88.754 655.99 87.2035 657.276C85.8195 658.426 83.9048 658.905 82.2346 659.477C78.1918 660.862 74.1178 662.147 70.0125 663.339C65.9073 664.526 61.7761 665.619 57.624 666.608C54.3461 667.388 49.6633 667.773 48.3313 671.479C48.0555 672.249 48.0295 673.066 48.2481 673.852C48.3209 674.113 48.555 674.269 48.81 674.284C51.2918 674.425 53.7477 673.993 56.1463 673.384C58.5449 672.775 61.1361 671.994 63.6232 671.292C68.6441 669.866 73.6703 668.44 78.6913 667.013C81.5582 666.201 84.4199 665.39 87.2868 664.572L86.5688 664.161C87.8747 669.611 88.4627 675.211 88.3066 680.811C88.291 681.446 88.2442 681.899 88.5251 682.477C88.7489 682.935 89.0194 683.372 89.3316 683.778C89.8103 684.397 90.3982 684.944 91.1162 685.271C92.4118 685.865 93.8635 685.641 95.0602 684.917C96.3245 684.147 97.2923 682.914 97.8542 681.55C98.2757 680.53 98.3329 679.432 98.4942 678.349C98.9261 675.414 99.4412 672.494 99.9459 669.569C100.315 667.43 100.695 665.296 101.075 663.157L100.357 663.568C104.27 664.619 108.245 665.488 112.225 666.233C115.472 666.836 118.745 667.352 122.038 667.622C124.65 667.836 127.434 667.992 129.999 667.347C130.686 667.175 131.305 666.878 131.96 666.623C132.933 666.243 133.938 665.962 134.926 665.613C136.883 664.926 138.303 663.802 139.245 661.923C139.39 661.637 139.318 661.299 139.037 661.122C136.071 659.305 132.59 659.701 129.317 660.232C127.564 660.518 125.805 660.862 124.021 660.903C122.236 660.945 120.561 660.716 118.885 660.273C115.55 659.394 112.485 657.734 109.639 655.813C108.156 654.814 106.726 653.736 105.331 652.612C103.937 651.488 102.61 650.312 102.006 648.625C101.403 646.939 101.491 645.065 101.533 643.291C101.58 641.287 101.637 639.283 101.705 637.284C101.84 633.194 102.006 629.098 102.22 625.007C102.641 616.908 103.224 608.82 104.03 600.753C104.941 591.64 106.138 582.557 107.688 573.533C107.813 572.794 106.689 572.481 106.559 573.22C103.744 589.584 102.1 606.129 101.174 622.706C100.945 626.797 100.763 630.888 100.612 634.984C100.539 637.029 100.471 639.075 100.419 641.12C100.367 643.166 100.206 645.097 100.456 647.059C100.674 648.766 101.314 650.28 102.459 651.576C103.604 652.872 104.998 653.867 106.34 654.887C109.187 657.047 112.204 659.009 115.519 660.372C119.14 661.866 122.897 662.366 126.773 661.819C130.649 661.273 134.9 659.972 138.433 662.137L138.225 661.335C137.408 662.969 136.248 663.917 134.541 664.51C133.693 664.807 132.835 665.051 131.992 665.364C131.346 665.603 130.733 665.915 130.072 666.113C127.694 666.826 125.03 666.67 122.584 666.493C116.585 666.061 110.633 664.838 104.785 663.464C103.406 663.141 102.032 662.808 100.669 662.444C100.383 662.366 100.003 662.537 99.9511 662.855C99.1498 667.326 98.3537 671.797 97.6409 676.278C97.2871 678.5 97.3079 680.993 95.7626 682.789C94.9613 683.72 93.7958 684.543 92.5159 684.449C91.8863 684.402 91.3036 684.116 90.8405 683.694C90.2109 683.127 89.446 682.18 89.4773 681.311C89.675 675.44 89.0819 669.564 87.7134 663.854C87.6406 663.547 87.292 663.36 86.9954 663.443C77.0575 666.264 67.1352 669.163 57.1713 671.901C54.4449 672.65 51.6769 673.269 48.8308 673.108L49.3927 673.54C48.8776 671.692 50.3553 670.11 51.9058 669.371C53.6957 668.512 55.7925 668.247 57.7125 667.794C61.8697 666.805 66.001 665.723 70.1062 664.536C74.2114 663.349 78.2854 662.069 82.3282 660.69C84.0036 660.117 85.8143 659.623 87.318 658.65C88.8217 657.676 89.623 656.344 89.8519 654.626C90.1069 652.706 89.9403 650.697 89.9039 648.766C89.8675 646.731 89.8155 644.701 89.7426 642.666C89.6021 638.544 89.3888 634.422 89.1131 630.31C88.5563 621.978 87.7446 613.661 86.6884 605.38C85.6322 597.099 84.3887 589.126 82.8642 581.064C82.6716 580.054 82.4791 579.05 82.2814 578.04C82.1357 577.301 81.0066 577.613 81.1523 578.352H81.1419Z" fill="#FF0055"/>
<path d="M207.395 316.667C212.348 317.619 216.297 322.116 219.253 325.9C222.473 330.032 225.127 334.592 226.953 339.5C231.116 350.664 233.681 362.416 234.669 374.288C236.652 398.057 232.469 422.347 222.697 444.108C217.817 454.97 211.552 465.234 203.982 474.43C195.376 484.881 185.022 493.646 174.308 501.854C153.064 518.124 129.349 533.389 115.847 557.283C112.855 562.577 110.93 569.389 105.93 573.215C103.177 575.318 99.7379 576.129 96.4027 576.78C93.0676 577.431 89.7428 578.076 86.366 577.899C82.9892 577.722 79.8101 576.457 77.604 573.782C75.6685 571.43 74.6174 568.463 73.8109 565.564C72.0523 559.277 71.7713 552.703 70.2833 546.359C69.5496 543.226 68.5142 540.186 67.0469 537.324C66.7035 536.652 65.6941 537.246 66.0375 537.917C69.2947 544.267 70.0543 551.35 71.1314 558.298C72.0159 564.034 73.1761 570.774 77.2866 575.182C81.7925 580.007 88.6709 579.367 94.5868 578.305C97.8544 577.717 101.205 577.129 104.207 575.645C106.949 574.292 109.062 572.122 110.716 569.577C112.371 567.032 113.625 564.102 115.014 561.333C116.575 558.22 118.349 555.212 120.285 552.323C124.14 546.567 128.657 541.279 133.532 536.356C143.491 526.3 154.88 517.858 166.197 509.421C177.8 500.766 189.465 492.007 199.403 481.415C207.712 472.557 214.736 462.507 220.325 451.728C231.485 430.191 237.021 405.745 236.267 381.496C235.892 369.426 233.951 357.383 230.367 345.849C227.187 335.607 222.317 325.078 213.555 318.395C211.823 317.073 209.882 315.954 207.723 315.537C206.989 315.397 206.672 316.526 207.411 316.667H207.395Z" fill="#FF0055"/>
<path d="M115.847 559.048C117.881 561.765 120.098 564.336 122.226 566.974C122.72 567.583 123.209 568.198 123.688 568.822C124.218 569.514 124.708 570.259 125.368 570.831C126.882 572.148 129.047 572.137 130.936 571.924C138.579 571.065 144.635 565.116 147.934 558.496C149.906 554.541 151.129 550.273 152.123 545.979C152.835 542.882 153.351 539.733 154.251 536.683C155.806 531.432 157.804 526.3 159.74 521.179C160.562 518.998 161.4 516.822 162.196 514.636C162.435 513.981 162.674 513.32 162.883 512.648C162.992 512.289 163.205 511.779 163.002 511.42C162.831 511.128 162.44 511.019 162.154 511.201C161.519 511.602 162.102 512.612 162.747 512.211C162.867 512.138 162.773 512.211 162.373 512.102C161.764 511.94 162.113 512.097 161.93 511.81C161.884 511.732 161.904 511.753 161.92 511.784C161.878 511.711 161.951 511.659 161.904 511.826C161.852 512.013 161.8 512.201 161.743 512.388C161.54 513.023 161.316 513.653 161.088 514.277C160.349 516.302 159.579 518.316 158.819 520.336C156.972 525.228 155.088 530.12 153.517 535.106C152.752 537.537 152.232 539.988 151.701 542.481C150.832 546.562 149.891 550.653 148.392 554.561C145.79 561.353 140.936 567.937 133.699 570.165C132.013 570.685 130.202 570.961 128.433 570.821C127.356 570.737 126.471 570.357 125.738 569.556C125.212 568.983 124.77 568.322 124.291 567.708C122.278 565.116 120.139 562.623 118.094 560.057C117.673 559.532 117.257 559.001 116.851 558.46C116.403 557.861 115.389 558.444 115.842 559.053L115.847 559.048Z" fill="#FF0055"/>
<path d="M182.415 300.465C186.931 303.713 191.993 306.185 197.04 308.491C201.312 310.442 205.672 312.175 209.981 314.044C210.631 314.325 211.281 314.606 211.911 314.934C212.088 315.028 212.27 315.121 212.436 315.236C212.566 315.319 212.468 315.179 212.494 315.283C212.447 315.106 212.244 314.804 212.634 314.528C212.025 314.965 212.613 315.98 213.227 315.538C214.315 314.762 212.608 313.966 212.041 313.695C210.412 312.92 208.727 312.248 207.062 311.551C201.77 309.339 196.489 307.096 191.39 304.462C188.497 302.968 185.651 301.355 183.003 299.455C182.389 299.013 181.806 300.028 182.409 300.465H182.415Z" fill="#FF0055"/>
<path d="M212.931 314.439C205.584 315.293 198.903 318.686 191.858 320.706C191.421 320.831 191.234 321.57 191.718 321.778C198.034 324.474 203.232 329.32 206.349 335.445L206.697 334.587C195.438 336.205 184.074 337.022 172.706 337.054C172.18 337.054 171.956 337.683 172.289 338.053C182.123 348.827 187.545 363.348 187.488 377.915C187.472 382.011 187.014 386.092 186.124 390.084H187.253C182.899 377.978 173.923 367.72 162.596 361.635C159.401 359.918 156.025 358.549 152.538 357.544C152.185 357.445 151.779 357.727 151.8 358.106C152.45 371.847 152.216 385.629 151.087 399.338C150.764 403.247 150.364 407.145 149.901 411.043L150.993 410.746C144.188 401.508 136.003 393.436 127.553 385.717C125.108 383.484 122.642 381.278 120.17 379.071C119.879 378.811 119.265 378.863 119.192 379.331C117.277 391.937 113.531 404.251 108.057 415.769C106.502 419.043 104.805 422.243 102.984 425.377L104.077 425.673C103.338 411.793 102.599 397.917 101.86 384.036C101.829 383.495 101.257 383.307 100.861 383.62C92.9007 389.933 84.3261 395.455 75.2987 400.118L76.1 400.92C80.4082 393.821 84.7319 386.732 89.0141 379.617C92.9684 373.044 96.8083 366.366 99.8 359.288C102.792 352.21 104.847 344.84 105.279 337.205C105.669 330.329 104.55 323.532 101.886 317.182C97.2922 306.211 89.3262 297.176 83.0617 287.183C80.0179 282.332 77.3279 277.184 75.8971 271.605C74.2841 265.307 74.0188 257.828 77.817 252.239C79.8722 249.209 82.9056 246.997 85.8714 244.931C88.8371 242.865 92.1047 240.809 95.5283 239.341C98.9519 237.874 102.573 236.994 106.262 237.249C109.951 237.504 113.052 238.92 115.966 240.924C117.355 241.876 118.672 242.927 119.993 243.968C120.581 244.432 121.414 243.604 120.821 243.141C118.235 241.106 115.638 239.003 112.61 237.66C109.395 236.234 105.882 235.766 102.396 236.203C95.086 237.119 88.4365 241.428 82.6871 245.79C79.9295 247.882 77.3331 250.292 75.7566 253.425C74.18 256.558 73.5921 260.113 73.6285 263.606C73.691 269.424 75.3716 275.066 77.8639 280.286C83.0878 291.237 91.4127 300.309 97.4066 310.807C100.596 316.396 103.052 322.408 103.848 328.83C104.816 336.658 103.619 344.621 101.231 352.095C98.8115 359.663 95.1485 366.767 91.1889 373.632C87.0629 380.783 82.6871 387.794 78.405 394.857C77.2967 396.683 76.1884 398.51 75.0802 400.337C74.7628 400.858 75.382 401.399 75.8815 401.139C85.0025 396.428 93.6396 390.839 101.684 384.458L100.685 384.041C101.423 397.922 102.162 411.798 102.901 425.679C102.932 426.241 103.687 426.496 103.994 425.975C110.425 414.915 115.238 402.929 118.214 390.485C119.072 386.904 119.769 383.287 120.321 379.649L119.343 379.909C130.254 389.662 141.263 399.515 149.984 411.35C150.343 411.834 151.004 411.647 151.076 411.053C152.71 397.396 153.47 383.635 153.324 369.879C153.283 365.96 153.163 362.036 152.981 358.122L152.242 358.684C164.266 362.14 174.802 370.207 181.447 380.794C183.346 383.823 184.922 387.039 186.135 390.407C186.317 390.911 187.129 391.01 187.264 390.407C190.516 375.865 187.982 360.251 180.547 347.364C178.45 343.731 175.958 340.333 173.132 337.236L172.716 338.235C184.194 338.204 195.656 337.361 207.02 335.726C207.421 335.669 207.519 335.164 207.369 334.868C204.169 328.591 198.794 323.553 192.316 320.784L192.176 321.856C199.106 319.868 205.709 316.474 212.936 315.631C213.675 315.543 213.685 314.372 212.936 314.46L212.931 314.439Z" fill="#FF0055"/>
<path d="M114.015 238.628C114.031 234.792 113.006 230.983 111.424 227.511C109.801 223.956 107.475 220.573 104.4 218.132C100.945 215.389 96.4234 213.995 92.1517 213.157C87.4377 212.235 82.5416 211.965 77.7443 212.085C74.1646 212.173 69.1645 213.084 68.2071 217.201C68.1499 217.456 68.2487 217.726 68.4776 217.862C70.1686 218.861 71.8544 219.86 73.5454 220.86L73.4258 219.938C70.6369 222.13 67.1925 223.488 63.6648 223.816C61.9113 223.982 60.1267 223.915 58.3993 223.571C57.0413 223.306 55.7093 222.973 54.3305 222.817C52.1764 222.567 49.0701 222.556 48.0035 224.883C47.889 225.133 47.785 225.403 47.7434 225.679C47.6757 226.09 47.8578 226.324 48.1024 226.647C48.5394 227.225 49.0753 227.709 49.6685 228.125C50.9172 229 52.4001 229.51 53.8362 229.983C55.5792 230.561 57.3118 231.082 58.7218 232.31C60.007 233.429 61.1933 235.172 60.3816 236.906L60.8863 236.614C52.9828 237.285 45.0794 237.957 37.1759 238.623C34.7565 238.826 31.5201 239.029 30.0425 241.309C29.4077 242.287 29.5117 243.557 30.2142 244.468C31.0258 245.524 32.3995 245.941 33.6378 246.269C37.8939 247.403 42.15 248.528 46.4062 249.662L46.0575 248.803C44.2989 252.358 40.792 254.45 37.1447 255.668C32.9666 257.068 28.5336 257.329 24.241 258.234C21.7175 258.765 19.2409 259.546 16.9827 260.811C16.7486 260.941 16.6549 261.222 16.7122 261.472C17.4042 264.495 20.4688 265.989 23.3149 266.312C27.3316 266.77 31.1351 264.688 35.1467 264.875C38.076 265.011 42.124 267.488 40.8961 270.923C40.2613 272.698 38.5495 273.958 37.1655 275.129C35.5213 276.518 33.8303 277.856 32.0925 279.136C28.2526 281.962 24.215 284.502 20.0109 286.751C19.756 286.886 19.6155 287.307 19.8028 287.552C24.2983 293.475 33.1331 290.925 39.0854 289.244C47.3219 286.917 55.4075 284.003 63.2485 280.573C67.5463 278.694 71.7764 276.638 75.8712 274.337C76.5268 273.968 75.9389 272.958 75.2781 273.328C68.1654 277.325 60.6574 280.609 53.0141 283.451C49.143 284.892 45.2251 286.209 41.2655 287.391C37.8211 288.421 34.2986 289.545 30.7137 289.925C27.1287 290.305 23.1067 289.988 20.8122 286.964L20.6041 287.765C24.4596 285.704 28.1798 283.394 31.7283 280.843C33.4973 279.573 35.2247 278.246 36.9053 276.867C38.4142 275.623 40.0636 274.384 41.2135 272.781C42.2073 271.397 42.6027 269.643 41.9679 268.024C41.3852 266.541 40.126 265.396 38.7264 264.672C34.9958 262.757 30.9686 264.235 27.1287 264.933C23.8664 265.526 18.7622 265.162 17.8464 261.164L17.5759 261.825C25.3961 257.433 35.308 259.452 42.8108 254.206C44.5955 252.957 46.0992 251.359 47.0669 249.397C47.2334 249.064 47.1034 248.637 46.7183 248.538C43.2895 247.627 39.8607 246.716 36.4266 245.806C35.0062 245.431 33.4141 245.186 32.0977 244.504C31.1351 244.005 30.3546 242.948 31.0519 241.907C31.6398 241.022 32.8001 240.559 33.7783 240.273C35.1727 239.867 36.6452 239.841 38.0864 239.721C41.6297 239.419 45.1678 239.123 48.7111 238.821C52.7695 238.477 56.8279 238.134 60.8915 237.79C61.0841 237.775 61.3078 237.691 61.3962 237.499C62.8843 234.314 60.0174 231.279 57.2962 229.994C54.575 228.708 50.6623 228.438 48.8048 225.606L48.862 226.059C49.476 222.921 54.1639 223.873 56.3492 224.321C58.2692 224.711 60.1267 225.091 62.0986 225.07C64.0706 225.049 66.1831 224.706 68.1238 224.071C70.3559 223.337 72.4164 222.218 74.2582 220.766C74.56 220.526 74.4352 220.022 74.1386 219.845C72.4476 218.845 70.7618 217.846 69.0708 216.847L69.3414 217.508C70.1322 214.104 74.3883 213.396 77.3333 213.266C81.8079 213.073 86.4231 213.334 90.8353 214.099C94.9613 214.812 99.3944 216.004 102.87 218.434C105.867 220.526 108.141 223.597 109.801 226.824C111.663 230.447 112.87 234.537 112.855 238.628C112.855 239.383 114.02 239.383 114.025 238.628H114.015Z" fill="#FF0055"/>
<path d="M87.5939 393.519C83.7489 404.662 77.5052 414.785 70.0596 423.867C62.614 432.95 54.263 440.866 45.6311 448.6C37.431 455.949 28.976 463.038 21.0829 470.725C19.3867 472.375 17.55 473.947 15.9891 475.727C14.9849 476.872 13.3615 479.104 15.2347 480.286C15.9787 480.754 17.0089 480.744 17.857 480.749C19.0017 480.754 20.1516 480.671 21.2806 480.52C22.5034 480.359 23.6741 479.979 24.85 479.625C26.4785 479.131 28.0915 478.589 29.6888 478.006C42.7694 473.223 54.5752 465.65 65.9023 457.667C67.3019 456.678 68.6964 455.684 70.0908 454.684L69.4976 453.675C59.4505 460.878 50.7665 469.736 42.067 478.47C33.5131 487.057 24.8396 495.733 14.6831 502.442C9.0638 506.153 3.01262 509.187 -3.4288 511.165C-3.86586 511.301 -4.05316 512.014 -3.56928 512.237C8.08043 517.525 21.4732 515.131 32.6234 509.744C38.5029 506.903 43.9557 503.259 49.2316 499.439C54.5075 495.619 59.7106 491.752 64.7836 487.708C70.4654 483.18 75.9078 478.308 80.5021 472.661L79.6749 471.834C75.6165 476.991 70.7932 481.478 65.8086 485.725C60.7252 490.055 55.5325 494.271 50.3607 498.497C45.1888 502.723 39.3405 506.715 33.5235 510.353C27.7325 513.976 21.8478 517.385 15.5937 520.148C8.43423 523.308 1.00942 525.811 -6.39456 528.309C-6.85244 528.465 -6.99812 529.121 -6.53504 529.382C4.39664 535.44 17.4356 536.002 29.4183 533.202C42.0982 530.24 53.4409 523.433 63.7066 515.615C69.6381 511.098 75.2835 506.226 80.9132 501.344L80.0859 500.516C76.5894 504.41 72.4738 507.746 68.2905 510.869C63.2331 514.642 57.9572 518.113 52.5876 521.424C47.218 524.734 41.7288 527.888 36.1667 530.886C31.5723 533.363 26.9208 535.752 22.186 537.954C19.5376 539.182 16.7644 540.613 13.9027 541.279C13.8142 541.3 13.7258 541.316 13.6373 541.337C13.502 541.363 13.476 541.363 13.5333 541.357C13.1274 541.404 12.758 541.831 13.0286 542.237C13.502 542.95 14.6623 543.106 15.4272 543.257C17.113 543.59 18.8352 543.752 20.5418 543.887C25.7657 544.303 31.026 544.329 36.2603 544.147C42.0878 543.944 47.9412 543.47 53.675 542.372C60.335 541.097 66.5631 538.448 72.401 535.018C78.884 531.208 84.9248 526.592 90.6065 521.668C96.0073 516.989 101.075 511.93 105.768 506.543C115.139 495.785 123.043 483.747 129.193 470.876C135.327 458.041 139.739 444.379 142.133 430.347C142.429 428.625 142.689 426.897 142.924 425.163C143.022 424.424 141.893 424.107 141.794 424.851C139.911 438.774 136.066 452.42 130.457 465.302C124.843 478.183 117.506 490.321 108.682 501.25C99.764 512.295 89.3162 522.236 77.6196 530.292C71.5112 534.498 64.8513 538.276 57.6606 540.254C52.3483 541.717 46.8018 542.336 41.3177 542.716C35.8337 543.096 30.256 543.179 24.7303 542.96C22.6126 542.877 20.4898 542.747 18.3825 542.513C17.0974 542.372 15.755 542.232 14.5218 541.826C14.2669 541.743 14.3033 541.758 14.1316 541.67C14.0848 541.644 14.0327 541.592 13.9807 541.576C14.0692 541.602 14.0067 541.576 14.0431 541.638L13.5384 542.518C14.5062 542.409 15.4428 542.055 16.3481 541.717C17.9299 541.128 19.4804 540.452 21.0205 539.765C25.6148 537.704 30.1103 535.424 34.5589 533.072C40.121 530.126 45.6051 527.029 50.9902 523.771C56.3754 520.513 61.9584 516.922 67.1875 513.127C71.6049 509.926 75.9547 506.528 79.7529 502.598C80.1536 502.187 80.5438 501.766 80.9288 501.339C81.4335 500.777 80.6686 500.017 80.1015 500.511C70.3145 508.99 60.4338 517.546 49.1327 523.979C38.3259 530.136 26.1247 534.118 13.5749 533.618C6.76924 533.347 0.0416579 531.672 -5.93148 528.361L-6.07198 529.434C0.561956 527.196 7.2011 524.947 13.6633 522.241C20.1256 519.534 26.0467 516.318 31.9366 512.711C37.7796 509.135 43.4978 505.341 48.909 501.136C51.5782 499.064 54.1277 496.852 56.7397 494.708C59.3516 492.564 62.0052 490.43 64.6119 488.254C70.3197 483.497 75.9026 478.511 80.5125 472.656C80.9704 472.073 80.164 471.24 79.6853 471.828C71.6569 481.686 61.1727 489.191 51.0215 496.686C40.9483 504.123 30.1259 511.384 17.5292 513.466C10.6611 514.6 3.42365 514.127 -2.96573 511.222L-3.10621 512.295C8.42382 508.755 18.471 501.917 27.4879 494.047C36.8118 485.912 45.168 476.747 54.1173 468.216C59.1695 463.397 64.4246 458.765 70.1012 454.689C70.7099 454.252 70.122 453.237 69.508 453.68C58.4463 461.612 47.114 469.387 34.5693 474.816C31.4215 476.179 28.1955 477.377 24.9176 478.386C23.7209 478.756 22.5086 479.177 21.2702 479.354C20.1724 479.516 19.0537 479.583 17.9455 479.583C17.3523 479.583 16.0203 479.713 15.6353 479.099C15.2503 478.485 16.0776 477.475 16.4314 477.023C17.8206 475.258 19.6157 473.811 21.213 472.245C28.8875 464.693 37.1344 457.75 45.168 450.588C53.597 443.078 61.8699 435.339 69.1958 426.725C76.5842 418.038 82.9632 408.451 87.2297 397.834C87.7605 396.512 88.2547 395.179 88.7178 393.837C88.9624 393.124 87.8333 392.816 87.5888 393.524L87.5939 393.519Z" fill="#FF0055"/>
<path d="M66.5369 427.937C56.495 428.734 46.1668 428.203 36.3486 425.856C31.5722 424.716 26.8426 423.113 22.5917 420.62C17.4979 417.632 13.4082 413.234 9.37584 408.993C1.57121 400.78 -6.98784 393.571 -16.8061 387.872C-26.6243 382.173 -36.8483 378.16 -47.6708 375.714C-69.5029 370.78 -92.563 373.117 -113.027 382.157C-123.376 386.727 -132.949 392.999 -141.222 400.717C-150.239 409.138 -157.716 419.017 -165.136 428.822C-179.434 447.715 -194.007 467.045 -202.239 489.503C-203.264 492.298 -204.174 495.135 -204.981 497.997C-205.111 498.466 -204.554 498.955 -204.122 498.658C-184.585 485.256 -167.768 468.482 -150.421 452.462C-142.398 445.05 -134.193 437.816 -125.759 430.878C-119.468 425.705 -112.902 420.786 -105.529 417.258C-96.3196 412.849 -86.2256 410.861 -76.1472 409.7L-76.4438 408.607C-89.4307 415.347 -102.589 422.311 -113.859 431.752C-123.922 440.179 -131.638 450.703 -137.013 462.658C-144.547 479.422 -148.845 497.898 -150.655 516.146C-152.164 531.359 -151.764 546.729 -149.615 561.859C-148.33 570.899 -146.264 579.742 -144.063 588.595C-143.928 589.147 -143.793 589.703 -143.662 590.255C-143.558 590.724 -142.809 590.854 -142.591 590.396C-132.798 569.473 -121.612 549.232 -111.856 528.288C-107.381 518.681 -103.781 508.62 -98.2187 499.559C-94.2175 493.043 -89.4879 486.839 -83.8842 481.613C-82.3285 480.166 -80.6791 478.683 -78.8112 477.652C-78.4158 477.434 -77.7966 477.324 -77.5052 477.168C-77.5625 477.2 -77.6249 477.049 -77.6353 477.08C-77.6197 477.038 -77.7029 477.382 -77.7446 477.538C-78.3846 479.661 -79.6073 481.733 -80.4814 483.773C-81.444 486.027 -82.3753 488.296 -83.2598 490.581C-84.904 494.833 -86.3869 499.153 -87.5888 503.556C-89.8573 511.868 -90.9864 520.419 -91.1217 529.028C-91.2778 539.328 -90.4245 549.737 -88.567 559.87C-84.7063 580.923 -76.5323 600.93 -73.2439 622.108C-72.8121 624.892 -72.4686 627.692 -72.2137 630.498C-72.1669 631.018 -71.3968 631.367 -71.1211 630.794C-63.6234 615.05 -56.8334 598.884 -52.2339 582.037C-48.0818 566.834 -45.8861 551.158 -45.9589 535.393C-46.0006 525.894 -46.8383 516.422 -48.2171 507.027C-48.3107 506.382 -49.445 506.528 -49.367 507.184C-48.8363 511.509 -48.394 516.063 -46.7654 520.148C-45.6416 522.98 -43.7841 525.389 -42.067 527.877C-38.7527 532.686 -35.8337 537.756 -33.1021 542.914C-29.819 549.112 -26.8792 555.53 -24.85 562.259C-22.5815 569.78 -21.5825 577.639 -22.6283 585.462C-22.696 585.972 -21.9467 586.227 -21.6293 585.878C-17.3836 581.147 -13.8923 575.745 -12.2222 569.556C-10.6144 563.592 -10.7497 557.341 -11.5302 551.257C-12.5968 542.981 -15.5625 534.659 -14.6312 526.243C-13.9288 519.919 -12.7216 513.637 -11.8111 507.34L-12.961 507.184C-12.4927 520.403 -10.3803 533.321 -6.16577 545.875C-5.98886 546.395 -5.18237 546.468 -5.0367 545.875C-4.42273 543.34 -3.76195 540.811 -2.91383 538.344C-2.28427 536.507 -1.4986 533.634 0.27565 532.541C0.915634 532.145 0.327698 531.13 -0.31749 531.531C-2.11775 532.64 -2.96066 535.091 -3.66309 536.965C-4.70891 539.765 -5.46335 542.669 -6.16577 545.568H-5.0367C-9.21997 533.113 -11.322 520.305 -11.7903 507.189C-11.8111 506.564 -12.8413 506.351 -12.9402 507.033C-13.7779 512.862 -14.7977 518.67 -15.5834 524.51C-15.9788 527.445 -16.1661 530.334 -15.8071 533.285C-14.4803 544.251 -10.7445 554.973 -12.6644 566.137C-13.9079 573.371 -17.5969 579.643 -22.4514 585.05L-21.4524 585.467C-19.6209 571.81 -24.0644 558.408 -30.0531 546.302C-32.8888 540.571 -36.0054 534.924 -39.5175 529.574C-41.3334 526.81 -43.4927 524.192 -44.9964 521.236C-47.1661 516.968 -47.6135 511.857 -48.1911 507.189L-49.3409 507.345C-46.9787 523.448 -46.3648 539.796 -48.2795 555.982C-50.1943 572.169 -54.4296 587.288 -60.0489 602.2C-63.639 611.719 -67.7547 621.03 -72.1252 630.211L-71.0326 630.508C-73.0254 608.555 -81.1578 587.996 -85.9759 566.636C-88.4369 555.738 -89.7325 544.636 -89.9302 533.462C-90.0915 524.312 -89.2798 515.199 -87.0789 506.309C-84.6751 496.587 -80.6999 487.52 -76.7976 478.334C-76.4386 477.491 -76.1524 476.148 -77.4376 476.013C-78.6499 475.883 -80.0704 477.033 -80.9757 477.684C-86.158 481.436 -90.4609 486.558 -94.2592 491.653C-96.9908 495.317 -99.4674 499.179 -101.663 503.186C-104.306 508.011 -106.336 513.086 -108.531 518.119C-118.006 539.858 -129.484 560.646 -139.843 581.964C-141.113 584.572 -142.362 587.19 -143.59 589.813L-142.518 589.953C-144.287 582.188 -146.347 574.532 -147.674 566.668C-150.073 552.454 -150.9 537.974 -150.052 523.583C-148.949 504.857 -145.046 486.115 -138.23 468.628C-133.392 456.209 -126.388 444.863 -116.591 435.75C-106.242 426.121 -93.7336 419.095 -81.3191 412.506C-79.498 411.538 -77.6665 410.58 -75.835 409.627C-75.3407 409.372 -75.5437 408.467 -76.1316 408.535C-85.1694 409.575 -94.2175 411.225 -102.657 414.718C-109.978 417.747 -116.549 422.113 -122.762 426.985C-140.489 440.887 -156.478 456.813 -173.101 471.969C-183.138 481.119 -193.492 489.956 -204.705 497.649L-203.846 498.31C-197.343 475.191 -183.471 455.199 -169.246 436.208C-161.899 426.397 -154.641 416.414 -146.269 407.436C-138.36 398.963 -129.281 391.786 -119.026 386.357C-99.0408 375.782 -75.6841 371.93 -53.3889 375.761C-31.3123 379.55 -10.5468 390.401 5.20297 406.328C9.44348 410.616 13.3822 415.238 18.143 418.97C21.7384 421.791 25.828 423.795 30.1362 425.278C39.5901 428.526 49.861 429.546 59.8093 429.41C62.0518 429.379 64.2944 429.275 66.5317 429.098C67.2758 429.041 67.2862 427.87 66.5317 427.927L66.5369 427.937Z" fill="#FF0055"/>
<path d="M116.882 265.937C118.739 261.753 119.889 257.318 120.529 252.79C121.169 248.262 121.289 243.531 121.492 238.878C121.867 230.197 122.709 221.151 127.574 213.688C129.905 210.112 133.084 207.114 137.023 205.391L136.144 204.887C136.674 210.242 135.66 215.546 134.427 220.74C133.194 225.934 131.893 231.227 131.164 236.599C130.446 241.913 130.113 247.294 130.233 252.66C130.259 253.758 130.358 254.877 131.076 255.757C131.794 256.637 132.814 257.079 133.787 257.542C136.055 258.619 138.412 259.52 140.821 260.228C146.238 261.815 151.925 262.429 157.554 262.039L157.138 261.04C149.375 269.783 136.368 272.854 125.306 269.497C122.194 268.555 119.27 267.087 116.669 265.141C116.065 264.688 115.482 265.708 116.075 266.151C120.894 269.752 126.804 271.668 132.788 271.959C138.771 272.25 144.807 270.934 150.062 268.102C153.033 266.505 155.728 264.397 157.965 261.878C158.278 261.529 158.09 260.842 157.549 260.878C152.684 261.217 147.788 260.805 143.048 259.629C140.67 259.041 138.334 258.271 136.081 257.313C135.015 256.86 133.922 256.397 132.928 255.804C131.778 255.117 131.44 254.19 131.399 252.889C131.237 247.679 131.565 242.428 132.236 237.265C132.913 232.065 134.115 226.996 135.337 221.906C136.68 216.347 137.871 210.643 137.299 204.892C137.252 204.423 136.846 204.2 136.42 204.387C129.364 207.479 124.811 214.437 122.663 221.609C119.889 230.858 120.675 240.554 119.686 250.042C119.14 255.294 118.006 260.514 115.857 265.349C115.555 266.031 116.565 266.629 116.866 265.942L116.882 265.937Z" fill="#FF0055"/>
<path d="M141.576 271.204C141.295 270.955 141.591 271.158 141.545 271.194C141.539 271.199 141.487 271.048 141.545 271.184C141.565 271.23 141.581 271.282 141.597 271.329C141.695 271.616 141.784 271.902 141.872 272.188C142.158 273.141 142.419 274.103 142.674 275.066C143.49 278.189 144.214 281.343 144.869 284.508C145.681 288.432 146.383 292.382 146.893 296.353C147.367 300.064 147.715 303.827 147.596 307.575C147.538 309.417 147.299 311.197 146.93 313.003C146.316 315.975 145.525 319.014 145.821 322.075C145.936 323.272 146.347 324.292 147.611 324.604C148.746 324.885 150.02 324.875 151.175 324.818C153.501 324.703 155.77 324.131 157.903 323.204C162.289 321.304 166.035 317.885 168.372 313.721C171.025 309.001 171.868 303.39 171.291 298.045C170.115 287.141 163.345 278.007 155.062 271.236C154.058 270.413 153.028 269.622 151.977 268.852L151.384 269.862C157.227 273.989 162.674 278.876 165.978 285.319C168.205 289.66 169.391 294.443 171.67 298.758C172.321 299.991 173.044 301.194 173.856 302.328C174.438 303.145 175.115 303.791 176.14 303.952C177.071 304.098 178.013 303.853 178.866 303.473C181.837 302.141 183.866 299.247 184.772 296.192C185.677 293.137 185.589 289.566 184.569 286.454C183.388 282.858 180.911 279.771 178.081 277.315C175.016 274.655 171.478 272.615 167.872 270.804C163.725 268.722 159.376 266.801 154.74 266.166C153.631 266.015 152.523 265.937 151.41 265.948C150.655 265.948 150.655 267.124 151.41 267.119C155.967 267.088 160.338 268.571 164.443 270.45C168.085 272.12 171.696 273.989 174.959 276.336C178.221 278.683 180.849 281.333 182.607 284.752C184.049 287.563 184.558 290.92 184.069 294.037C183.58 297.155 182.16 299.991 179.589 301.735C178.856 302.235 178.034 302.677 177.144 302.807C175.963 302.979 175.302 302.365 174.673 301.449C173.923 300.361 173.247 299.226 172.633 298.06C170.484 293.949 169.313 289.421 167.269 285.262C164.407 279.454 159.859 274.827 154.776 270.913C153.86 270.21 152.934 269.529 151.992 268.862C151.373 268.425 150.801 269.435 151.399 269.872C159.781 276.019 167.237 284.305 169.574 294.703C170.739 299.908 170.578 305.467 168.637 310.463C166.899 314.934 163.611 318.733 159.459 321.127C157.466 322.278 155.286 323.09 153.012 323.464C151.878 323.652 150.723 323.714 149.573 323.662C149.037 323.636 148.459 323.626 147.934 323.485C147.075 323.256 147.023 322.486 146.971 321.716C146.768 318.702 147.585 315.761 148.168 312.836C148.501 311.166 148.709 309.49 148.772 307.783C148.902 304.186 148.595 300.574 148.152 297.004C147.679 293.142 147.029 289.296 146.264 285.481C145.624 282.264 144.906 279.063 144.099 275.883C143.678 274.218 143.298 272.485 142.679 270.882C142.616 270.715 142.549 270.507 142.413 270.387C141.852 269.888 141.024 270.71 141.586 271.215L141.576 271.204Z" fill="#FF0055"/>
<defs>
<radialGradient id="paint0_radial_1_84" cx="0" cy="0" r="1" gradientUnits="userSpaceOnUse" gradientTransform="translate(154.896 165.154) scale(165.104 165.154)">
<stop stop-color="#FF0055" stop-opacity="0.7"/>
<stop offset="1" stop-color="#FF0055" stop-opacity="0.05"/>
</radialGradient>
</defs>
</svg>
