<svg width="96" height="95" viewBox="0 0 96 95" fill="none" xmlns="http://www.w3.org/2000/svg">
<path d="M69.5058 0H25.9382C11.7616 0 0.225586 11.536 0.225586 25.7126V69.2802C0.225586 83.4569 11.7616 94.9928 25.9382 94.9928H69.5058C83.6825 94.9928 95.2184 83.4569 95.2184 69.2802V25.7126C95.2184 11.536 83.6825 0 69.5058 0ZM89.6508 69.2874C89.6508 80.394 80.6124 89.4324 69.5058 89.4324H25.9382C14.8316 89.4324 5.79319 80.394 5.79319 69.2874V25.7198C5.79319 14.6132 14.8316 5.57476 25.9382 5.57476H69.5058C80.6124 5.57476 89.6508 14.6132 89.6508 25.7198V69.2874Z" fill="#FF0055"/>
<path d="M47.722 21.5264C33.3951 21.5264 21.7446 33.1768 21.7446 47.5038C21.7446 61.8307 33.3951 73.4812 47.722 73.4812C62.049 73.4812 73.6994 61.8307 73.6994 47.5038C73.6994 33.1768 62.049 21.5264 47.722 21.5264ZM47.722 67.9064C36.4723 67.9064 27.3122 58.7535 27.3122 47.4966C27.3122 36.2397 36.4652 27.0868 47.722 27.0868C58.9789 27.0868 68.1318 36.2397 68.1318 47.4966C68.1318 58.7535 58.9789 67.9064 47.722 67.9064Z" fill="#FF0055"/>
<path d="M74.315 12.3018C70.0856 12.3018 66.6362 15.7439 66.6362 19.9805C66.6362 24.217 70.0784 27.6592 74.315 27.6592C78.5515 27.6592 81.9937 24.217 81.9937 19.9805C81.9937 15.7439 78.5515 12.3018 74.315 12.3018ZM74.315 22.0844C73.1556 22.0844 72.211 21.1398 72.211 19.9805C72.211 18.8212 73.1556 17.8765 74.315 17.8765C75.4743 17.8765 76.4189 18.8212 76.4189 19.9805C76.4189 21.1398 75.4743 22.0844 74.315 22.0844Z" fill="#FF0055"/>
</svg>
