<svg width="86" height="95" viewBox="0 0 86 95" fill="none" xmlns="http://www.w3.org/2000/svg">
<path d="M19.9831 28.1313H3.96732C2.17108 28.1313 0.711182 29.5912 0.711182 31.3875V91.7438C0.711182 93.54 2.17108 94.9999 3.96732 94.9999H19.9831C21.7794 94.9999 23.2393 93.54 23.2393 91.7438V31.3875C23.2393 29.5912 21.7794 28.1313 19.9831 28.1313ZM17.6645 89.4251H6.28595V33.7061H17.6645V89.4251Z" fill="#FF0055"/>
<path d="M11.9752 0C5.71345 0 0.618164 5.09529 0.618164 11.3571C0.618164 17.6188 5.71345 22.7141 11.9752 22.7141C18.237 22.7141 23.3323 17.6188 23.3323 11.3571C23.3323 5.09529 18.237 0 11.9752 0ZM11.9752 17.1394C8.78351 17.1394 6.19293 14.5488 6.19293 11.3571C6.19293 8.16535 8.78351 5.57476 11.9752 5.57476C15.1669 5.57476 17.7575 8.16535 17.7575 11.3571C17.7575 14.5488 15.1669 17.1394 11.9752 17.1394Z" fill="#FF0055"/>
<path d="M75.0367 35.2091C71.2081 32.0102 66.3418 30.307 61.3396 30.4001C58.2337 30.4573 55.1923 31.2087 52.4442 32.5613V31.2445C52.4442 29.527 51.0488 28.1387 49.3384 28.1387H33.0292C31.3117 28.1387 29.9233 29.5342 29.9233 31.2445V91.8942C29.9233 93.6117 31.3188 95.0001 33.0292 95.0001H49.6604C51.199 95.0001 52.4514 93.7549 52.4514 92.2163V56.0554C52.4514 52.9568 54.8702 50.3375 57.9689 50.2517C61.1821 50.1586 63.8299 52.7421 63.8299 55.9409V92.2807C63.8299 93.7906 65.0537 95.0072 66.5565 95.0072H82.5365C84.0465 95.0072 85.2631 93.7835 85.2631 92.2807V57.0502C85.2631 48.5986 81.5418 40.6407 75.0439 35.2234L75.0367 35.2091ZM79.6811 89.4253H69.3904V55.9338C69.3904 49.7221 64.338 44.6697 58.1263 44.6697C51.9147 44.6697 46.8623 49.7221 46.8623 55.9338V89.4253H35.4838V33.7063H46.8623V37.7568C46.8623 38.4151 47.0913 39.0735 47.5565 39.6031C48.5798 40.7552 50.3403 40.8626 51.4924 39.8392C54.2405 37.4061 57.7685 36.0321 61.4325 35.9677C65.0966 35.8961 68.6604 37.1485 71.4585 39.4886C76.6827 43.8468 79.674 50.2445 79.674 57.0358V89.4253H79.6811Z" fill="#FF0055"/>
</svg>
