<svg width="101" height="60" viewBox="0 0 101 60" fill="none" xmlns="http://www.w3.org/2000/svg">
<path d="M33.1784 50.6414C28.9296 50.6334 24.7509 49.5599 21.0253 47.5193C17.2998 45.4787 14.1467 42.5363 11.8553 38.9619C9.1779 40.1394 6.63792 42.8719 4.89339 44.7412C3.14885 46.6104 2.37511 47.4502 1.21991 47.089C0.924052 46.9935 0.661758 46.8154 0.46408 46.5757C0.266401 46.336 0.141618 46.0447 0.104498 45.7363C-0.199214 43.8075 0.0719577 37.1053 2.09309 29.6338C3.95513 22.7619 7.87808 13.1629 16.0132 6.44632C20.5472 2.43154 26.804 0.121643 33.1784 0.121643C47.122 0.121643 58.4642 11.4526 58.4642 25.3824C58.4642 39.3123 47.122 50.6414 33.1784 50.6414ZM13.1117 35.6623L13.654 36.596C15.6253 40.0238 18.4655 42.8724 21.8889 44.8552C25.3123 46.838 29.1981 47.885 33.1552 47.8908C37.1123 47.8967 41.0012 46.8612 44.4304 44.8886C47.8597 42.916 50.7084 40.0758 52.6898 36.6539C54.6712 33.232 55.7155 29.349 55.7175 25.3958C55.7196 21.4426 54.6793 17.5586 52.7014 14.1347C50.7235 10.7107 47.8777 7.86762 44.4505 5.89147C41.0233 3.91532 37.1355 2.87584 33.1784 2.87763C27.4621 2.87763 21.8669 4.9401 17.8301 8.53408L17.7903 8.5684C5.45019 18.7453 2.98434 36.3811 2.77463 42.9785L2.87226 42.8719C5.04163 40.5476 8.29569 37.0313 12.0704 35.9585L13.1117 35.6623Z" fill="#FF0055"/>
<path d="M67.2014 59.4096C53.2595 59.4096 41.9155 48.0769 41.9155 34.1489C41.9155 20.2208 53.2523 8.88806 67.2014 8.88806C71.4503 8.89624 75.6292 9.97005 79.3547 12.011C83.0803 14.0519 86.2333 16.9947 88.5245 20.5694C91.2019 19.3901 93.7418 16.6576 95.4882 14.7901C97.2345 12.9227 98.0065 12.0811 99.1616 12.4333C99.4572 12.529 99.7191 12.7073 99.9164 12.947C100.114 13.1867 100.238 13.4778 100.275 13.786C100.579 15.7148 100.308 22.4188 98.2867 29.8885C96.4264 36.7622 92.5017 46.3612 84.3665 53.0777C79.8253 57.0979 73.5703 59.4096 67.2014 59.4096ZM67.2014 11.644C61.2767 11.719 55.6202 14.1229 51.4571 18.3349C47.294 22.5468 44.9596 28.2278 44.9596 34.147C44.9596 40.0663 47.294 45.7473 51.4571 49.9592C55.6202 54.1712 61.2767 56.5751 67.2014 56.6501C72.9195 56.6501 78.5128 54.5876 82.5515 50.9918L82.5913 50.9575C94.9241 40.786 97.3918 23.1484 97.5997 16.5564L97.5003 16.6612C95.3309 18.9873 92.0678 22.5018 88.3021 23.5764L87.2681 23.8672L86.7257 22.9353C84.7459 19.5102 81.9004 16.6645 78.474 14.683C75.0476 12.7014 71.1605 11.6535 67.2014 11.644Z" fill="#FF0055"/>
</svg>
