<svg width="475" height="60" viewBox="0 0 475 60" fill="none" xmlns="http://www.w3.org/2000/svg">
<path d="M166.89 16.4788V49.3725H163.069V28.6892L163.521 20.0181H163.472L152.554 49.3725H149.133L138.215 20.0181H138.164L138.619 28.6892V49.3725H134.797V16.4788H140.984L148.278 36.465L150.795 44.6854H150.895L153.461 36.5131L160.703 16.4788H166.89Z" fill="white"/>
<path d="M188.975 33.2741C188.975 31.4153 188.469 29.9782 187.458 28.9626C186.447 27.9471 185.023 27.4403 183.185 27.4423C181.632 27.3932 180.096 27.7818 178.757 28.563C177.544 29.3102 176.656 30.512 176.091 32.1685L172.822 30.1765C173.507 28.2976 174.82 26.7073 176.543 25.6696C178.363 24.5219 180.61 23.948 183.285 23.948C184.974 23.9261 186.649 24.2397 188.213 24.8704C189.631 25.4387 190.848 26.4098 191.71 27.6617C192.565 28.9075 192.993 30.51 192.993 32.4689V44.5322C192.993 45.734 193.63 46.3349 194.904 46.3349C195.533 46.3354 196.159 46.2515 196.766 46.0855L196.566 49.2253C195.743 49.5872 194.848 49.7578 193.948 49.724C193.046 49.7392 192.152 49.5512 191.334 49.1742C190.568 48.8183 189.932 48.2357 189.514 47.5067C189.052 46.6401 188.827 45.6682 188.862 44.6884V44.1927L189.869 44.3399C189.508 45.572 188.791 46.6727 187.807 47.5067C186.848 48.3165 185.735 48.9293 184.535 49.3094C183.382 49.682 182.178 49.8746 180.965 49.8803C179.555 49.8933 178.155 49.6405 176.841 49.1351C175.632 48.6809 174.58 47.8939 173.808 46.8667C172.956 45.5933 172.566 44.0705 172.703 42.5487C172.84 41.0269 173.496 39.5966 174.563 38.493C175.823 37.2912 177.574 36.469 179.819 36.0263L189.778 34.0824V37.3723L181.681 39.0158C180.037 39.3483 178.813 39.814 178.008 40.4129C177.615 40.6976 177.299 41.0737 177.087 41.5081C176.876 41.9425 176.775 42.4218 176.795 42.9037C176.784 43.39 176.89 43.8719 177.104 44.3096C177.318 44.7474 177.634 45.1285 178.026 45.4215C178.847 46.0705 180.013 46.394 181.523 46.392C182.467 46.3965 183.407 46.2711 184.316 46.0194C185.176 45.7835 185.986 45.3957 186.706 44.8747C187.405 44.364 187.973 43.6982 188.365 42.9308C188.787 42.0694 188.995 41.1207 188.972 40.1636L188.975 33.2741Z" fill="white"/>
<path d="M200.344 49.3725V24.4528H203.614L204.166 28.539C204.796 27.0929 205.881 25.8872 207.259 25.1018C208.618 24.3386 210.27 23.956 212.215 23.954C212.694 23.957 213.174 23.9901 213.649 24.0532C214.114 24.105 214.565 24.2405 214.981 24.4528L214.277 28.0913C213.883 27.9535 213.477 27.8529 213.064 27.7908C212.453 27.7201 211.838 27.692 211.223 27.7067C210.114 27.7274 209.03 28.0384 208.081 28.6081C206.971 29.2571 206.058 30.1914 205.44 31.3122C204.736 32.526 204.384 34.0623 204.384 35.9211V49.3785L200.344 49.3725Z" fill="white"/>
<path d="M228.061 23.9541C229.633 23.924 231.196 24.1954 232.665 24.7533C233.963 25.2685 235.137 26.0497 236.11 27.0458C237.105 28.0754 237.906 29.2731 238.475 30.5821L234.651 32.3848C234.115 30.7924 233.301 29.5716 232.21 28.7223C231.118 27.873 229.703 27.4494 227.964 27.4514C226.443 27.4109 224.942 27.7995 223.636 28.5721C222.404 29.35 221.439 30.4806 220.87 31.814C219.596 35.0939 219.596 38.7255 220.87 42.0054C221.434 43.3472 222.4 44.4859 223.636 45.2683C224.942 46.0421 226.443 46.4309 227.964 46.389C229.124 46.4153 230.278 46.211 231.357 45.7881C232.282 45.4145 233.096 44.815 233.723 44.0455C234.368 43.2289 234.808 42.2722 235.006 41.2543L238.727 42.5492C238.206 43.9961 237.413 45.3318 236.389 46.4852C235.404 47.5797 234.183 48.4403 232.816 49.003C231.307 49.607 229.691 49.9033 228.064 49.8743C225.868 49.9124 223.7 49.38 221.777 48.33C219.925 47.2956 218.42 45.7452 217.449 43.8712C216.41 41.9283 215.89 39.6108 215.89 36.9187C215.89 34.2266 216.41 31.9091 217.449 29.9662C218.421 28.0919 219.925 26.5408 221.777 25.5044C223.699 24.4542 225.866 23.9197 228.061 23.9541Z" fill="white"/>
<path d="M253.815 23.9541C256.02 23.9115 258.197 24.4441 260.129 25.4984C261.969 26.5406 263.464 28.0909 264.43 29.9602C265.471 31.9051 265.99 34.2226 265.988 36.9127C265.986 39.6028 265.467 41.9203 264.43 43.8652C263.463 45.7334 261.969 47.2826 260.129 48.3239C258.187 49.3383 256.024 49.8684 253.828 49.8684C251.633 49.8684 249.47 49.3383 247.528 48.3239C245.677 47.2895 244.173 45.7391 243.203 43.8652C242.162 41.9223 241.641 39.6048 241.641 36.9127C241.641 34.2206 242.162 31.9031 243.203 29.9602C244.174 28.0861 245.677 26.5349 247.528 25.4984C249.452 24.4497 251.619 23.9174 253.815 23.9541ZM253.815 27.3943C252.274 27.3481 250.753 27.7457 249.436 28.539C248.203 29.3336 247.233 30.4692 246.645 31.805C245.335 35.0781 245.335 38.7233 246.645 41.9964C247.227 43.3411 248.198 44.4849 249.436 45.2833C250.77 46.0356 252.278 46.4312 253.813 46.4312C255.348 46.4312 256.857 46.0356 258.191 45.2833C259.428 44.4841 260.399 43.3405 260.981 41.9964C262.292 38.7233 262.292 35.0781 260.981 31.805C260.393 30.4699 259.423 29.3346 258.191 28.539C256.873 27.7513 255.353 27.358 253.815 27.4063V27.3943Z" fill="white"/>
<path d="M280.224 49.8682C277.878 49.8919 275.56 49.3626 273.461 48.3239C271.47 47.3615 269.814 45.832 268.706 43.9313L272.127 41.4886C272.826 42.976 273.956 44.2245 275.372 45.076C276.797 45.9413 278.516 46.3729 280.527 46.3709C282.305 46.3709 283.697 46.0304 284.704 45.3494C285.167 45.073 285.551 44.6822 285.817 44.2151C286.082 43.748 286.221 43.2206 286.22 42.6844C286.221 41.9864 285.981 41.3091 285.541 40.7645C285.088 40.1856 284.224 39.762 282.951 39.4935L276.915 38.2497C274.465 37.7509 272.712 36.9197 271.657 35.7559C270.587 34.5683 270.015 33.0207 270.058 31.4294C270.051 30.0919 270.464 28.7854 271.241 27.6917C272.101 26.5086 273.264 25.5749 274.611 24.9876C276.232 24.2744 277.993 23.9255 279.766 23.9661C282.247 23.9661 284.344 24.4478 286.056 25.4112C287.734 26.3394 289.071 27.7698 289.877 29.4974L286.508 31.6907C286.015 30.3194 285.031 29.1753 283.742 28.4759C282.524 27.8105 281.157 27.4592 279.766 27.4543C278.713 27.4296 277.664 27.5987 276.673 27.9531C275.906 28.2251 275.227 28.6987 274.711 29.3232C274.258 29.8948 274.018 30.6036 274.032 31.33C274.046 32.0565 274.312 32.7559 274.786 33.3102C275.29 33.9271 276.229 34.3678 277.604 34.6322L283.891 35.9271C286.238 36.3918 287.882 37.156 288.822 38.2196C289.765 39.2961 290.266 40.683 290.229 42.1075C290.259 43.5744 289.819 45.013 288.974 46.2177C288.083 47.4319 286.862 48.3698 285.453 48.9218C283.791 49.5805 282.013 49.9024 280.224 49.8682Z" fill="white"/>
<path d="M334.001 20.2164H314.783V30.8315H329.773V34.5691H314.783V49.3725H310.758V16.4788H334.001V20.2164Z" fill="white"/>
<path d="M346.023 49.8682C343.801 49.9098 341.606 49.3776 339.654 48.3239C337.791 47.296 336.276 45.7445 335.302 43.8652C334.263 41.9222 333.743 39.6047 333.743 36.9127C333.743 34.2206 334.263 31.9031 335.302 29.9601C336.264 28.096 337.749 26.5466 339.578 25.4984C341.466 24.4501 343.601 23.9172 345.765 23.9541C348.112 23.9541 350.116 24.4548 351.776 25.4563C353.41 26.4189 354.731 27.8256 355.582 29.5095C356.474 31.2981 356.923 33.2714 356.892 35.2662C356.892 35.831 356.874 36.3448 356.841 36.8105C356.813 37.2275 356.762 37.6428 356.689 38.0544H336.37V34.521H354.933L352.853 34.9176C352.853 32.526 352.189 30.6822 350.863 29.3863C349.537 28.0903 347.802 27.4423 345.659 27.4423C344.164 27.4051 342.691 27.7941 341.413 28.563C340.188 29.3495 339.226 30.4775 338.647 31.8049C337.952 33.4174 337.616 35.1598 337.665 36.9127C337.622 38.6597 337.965 40.3948 338.671 41.9963C339.269 43.3407 340.258 44.4771 341.513 45.2593C342.846 46.0352 344.372 46.4236 345.917 46.38C347.761 46.38 349.261 46.0314 350.417 45.3344C351.576 44.6373 352.537 43.6604 353.21 42.4951L356.38 44.3369C355.098 46.6368 352.987 48.3721 350.469 49.1952C349.035 49.6613 347.532 49.8887 346.023 49.8682Z" fill="white"/>
<path d="M362.121 49.3725V24.4528H365.39L365.942 28.539C366.572 27.0929 367.657 25.8872 369.036 25.1018C370.394 24.3386 372.046 23.956 373.991 23.954C374.471 23.957 374.95 23.9901 375.426 24.0532C375.89 24.105 376.341 24.2405 376.757 24.4528L376.053 28.0913C375.659 27.9535 375.253 27.8529 374.84 27.7908C374.223 27.7141 373.6 27.681 372.978 27.6917C371.869 27.7128 370.785 28.0237 369.836 28.5931C368.726 29.242 367.813 30.1764 367.195 31.2971C366.491 32.511 366.139 34.0473 366.139 35.9061V49.3635L362.121 49.3725Z" fill="white"/>
<path d="M380.229 49.3725V24.4528H383.499L384.051 28.539C384.683 27.094 385.767 25.8889 387.144 25.1018C388.503 24.3386 390.155 23.956 392.1 23.954C392.579 23.957 393.059 23.9901 393.534 24.0532C394 24.1055 394.452 24.2409 394.869 24.4528L394.162 28.0913C393.768 27.9535 393.362 27.8529 392.949 27.7908C392.332 27.7142 391.711 27.6811 391.09 27.6917C389.98 27.7124 388.895 28.0234 387.945 28.5931C386.835 29.2429 385.923 30.177 385.303 31.2971C384.6 32.511 384.248 34.0473 384.248 35.9061V49.3635L380.229 49.3725Z" fill="white"/>
<path d="M408.049 49.8682C405.827 49.9091 403.632 49.3769 401.68 48.3239C399.818 47.2951 398.303 45.7439 397.328 43.8652C396.289 41.9222 395.769 39.6047 395.769 36.9127C395.769 34.2206 396.289 31.9031 397.328 29.9601C398.291 28.0967 399.776 26.5476 401.604 25.4984C403.492 24.4501 405.627 23.9172 407.791 23.9541C410.139 23.9541 412.142 24.4548 413.802 25.4563C415.435 26.4197 416.754 27.8262 417.605 29.5095C418.494 31.2991 418.942 33.2719 418.912 35.2662C418.912 35.831 418.894 36.3448 418.864 36.8105C418.834 37.2274 418.784 37.6425 418.712 38.0544H398.393V34.521H416.953L414.891 34.9176C414.891 32.526 414.229 30.6822 412.904 29.3863C411.58 28.0903 409.844 27.4423 407.697 27.4423C406.203 27.4041 404.729 27.7932 403.451 28.563C402.227 29.3503 401.263 30.478 400.682 31.8049C399.989 33.4181 399.655 35.1601 399.703 36.9127C399.659 38.6598 400.002 40.3953 400.71 41.9963C401.307 43.3407 402.297 44.4771 403.551 45.2593C404.883 46.0355 406.408 46.424 407.952 46.38C409.796 46.38 411.297 46.0314 412.456 45.3344C413.612 44.6363 414.572 43.6596 415.246 42.4951L418.415 44.3369C417.136 46.6385 415.024 48.3745 412.504 49.1952C411.067 49.6626 409.561 49.89 408.049 49.8682Z" fill="white"/>
<path d="M426.154 19.6696C425.503 19.6307 424.884 19.3717 424.402 18.9356C423.92 18.4996 423.603 17.913 423.505 17.2736C423.406 16.6342 423.532 15.9807 423.861 15.4221C424.19 14.8635 424.703 14.4336 425.313 14.2041C425.924 13.9746 426.595 13.9594 427.215 14.161C427.836 14.3626 428.367 14.7688 428.722 15.3119C429.077 15.855 429.232 16.5022 429.164 17.1453C429.095 17.7885 428.806 18.3889 428.344 18.8463C428.055 19.1245 427.712 19.3411 427.335 19.4826C426.959 19.6242 426.557 19.6879 426.154 19.6696ZM428.168 24.4528V49.3725H424.144V24.4528H428.168Z" fill="white"/>
<path d="M435.11 49.3725V24.4528H438.376L438.928 28.539C439.558 27.0946 440.641 25.8894 442.016 25.1018C443.372 24.3386 445.023 23.956 446.968 23.954C447.448 23.957 447.927 23.9901 448.403 24.0532C448.868 24.1055 449.32 24.2409 449.737 24.4528L449.03 28.0913C448.637 27.9531 448.23 27.8525 447.817 27.7908C447.201 27.7142 446.58 27.6811 445.958 27.6917C444.848 27.7124 443.763 28.0234 442.813 28.5931C441.704 29.2429 440.791 30.177 440.172 31.2971C439.468 32.511 439.116 34.0473 439.116 35.9061V49.3635L435.11 49.3725Z" fill="white"/>
<path d="M467.203 33.2741C467.203 31.4153 466.697 29.9782 465.686 28.9626C464.676 27.9471 463.25 27.4403 461.41 27.4423C459.857 27.3937 458.322 27.7823 456.982 28.563C455.769 29.3102 454.881 30.512 454.317 32.1685L451.047 30.1765C451.732 28.2976 453.045 26.7073 454.769 25.6696C456.588 24.5219 458.835 23.948 461.51 23.948C463.2 23.9261 464.877 24.2397 466.442 24.8704C467.858 25.4395 469.074 26.4105 469.935 27.6617C470.791 28.9075 471.218 30.51 471.218 32.4689V44.5322C471.218 45.734 471.856 46.3349 473.132 46.3349C473.76 46.3355 474.385 46.2516 474.991 46.0855L474.791 49.2253C473.968 49.5875 473.073 49.7581 472.173 49.724C471.271 49.7389 470.378 49.5509 469.559 49.1742C468.792 48.8196 468.156 48.2367 467.74 47.5067C467.274 46.6409 467.048 45.6686 467.085 44.6884V44.1927L468.091 44.3399C467.73 45.572 467.013 46.6727 466.029 47.5067C465.071 48.3165 463.959 48.9293 462.76 49.3094C461.606 49.6819 460.401 49.8745 459.187 49.8803C457.777 49.8933 456.377 49.6405 455.063 49.1351C453.855 48.6801 452.803 47.8932 452.03 46.8667C451.178 45.5933 450.788 44.0705 450.925 42.5487C451.063 41.0269 451.718 39.5966 452.785 38.493C454.045 37.2912 455.798 36.469 458.044 36.0263L468.003 34.0824V37.3723L459.909 39.0038C458.265 39.3363 457.041 39.802 456.236 40.4009C455.843 40.6856 455.527 41.0617 455.316 41.4961C455.104 41.9305 455.004 42.4098 455.023 42.8917C455.013 43.3782 455.12 43.8601 455.334 44.2979C455.549 44.7356 455.865 45.1166 456.258 45.4095C457.076 46.0585 458.244 46.38 459.751 46.38C460.695 46.3844 461.635 46.259 462.544 46.0074C463.404 45.772 464.214 45.3842 464.934 44.8627C465.634 44.3528 466.202 43.6868 466.593 42.9187C467.015 42.0574 467.223 41.1086 467.2 40.1515L467.203 33.2741Z" fill="white"/>
<path d="M33.1784 50.6414C28.9296 50.6334 24.7509 49.5599 21.0253 47.5193C17.2998 45.4787 14.1467 42.5363 11.8553 38.9619C9.1779 40.1394 6.63792 42.8719 4.89339 44.7412C3.14885 46.6104 2.37511 47.4502 1.21991 47.089C0.924052 46.9935 0.661758 46.8154 0.46408 46.5757C0.266401 46.336 0.141618 46.0447 0.104498 45.7363C-0.199214 43.8075 0.0719577 37.1053 2.09309 29.6338C3.95513 22.7619 7.87808 13.1629 16.0132 6.44632C20.5472 2.43154 26.804 0.121643 33.1784 0.121643C47.122 0.121643 58.4642 11.4526 58.4642 25.3824C58.4642 39.3123 47.122 50.6414 33.1784 50.6414ZM13.1117 35.6623L13.654 36.596C15.6253 40.0238 18.4655 42.8724 21.8889 44.8552C25.3123 46.838 29.1981 47.885 33.1552 47.8908C37.1123 47.8967 41.0012 46.8612 44.4304 44.8886C47.8597 42.916 50.7084 40.0758 52.6898 36.6539C54.6712 33.232 55.7155 29.349 55.7175 25.3958C55.7196 21.4426 54.6793 17.5586 52.7014 14.1347C50.7235 10.7107 47.8777 7.86762 44.4505 5.89147C41.0233 3.91532 37.1355 2.87584 33.1784 2.87763C27.4621 2.87763 21.8669 4.9401 17.8301 8.53408L17.7903 8.5684C5.45019 18.7453 2.98434 36.3811 2.77463 42.9785L2.87226 42.8719C5.04163 40.5476 8.29569 37.0313 12.0704 35.9585L13.1117 35.6623Z" fill="#FF0055"/>
<path d="M67.2014 59.4096C53.2595 59.4096 41.9155 48.0769 41.9155 34.1489C41.9155 20.2208 53.2523 8.88806 67.2014 8.88806C71.4503 8.89624 75.6292 9.97005 79.3547 12.011C83.0803 14.0519 86.2333 16.9947 88.5245 20.5694C91.2019 19.3901 93.7418 16.6576 95.4882 14.7901C97.2345 12.9227 98.0065 12.0811 99.1616 12.4333C99.4572 12.529 99.7191 12.7073 99.9164 12.947C100.114 13.1867 100.238 13.4778 100.275 13.786C100.579 15.7148 100.308 22.4188 98.2867 29.8885C96.4264 36.7622 92.5017 46.3612 84.3665 53.0777C79.8253 57.0979 73.5703 59.4096 67.2014 59.4096ZM67.2014 11.644C61.2767 11.719 55.6202 14.1229 51.4571 18.3349C47.294 22.5468 44.9596 28.2278 44.9596 34.147C44.9596 40.0663 47.294 45.7473 51.4571 49.9592C55.6202 54.1712 61.2767 56.5751 67.2014 56.6501C72.9195 56.6501 78.5128 54.5876 82.5515 50.9918L82.5913 50.9575C94.9241 40.786 97.3918 23.1484 97.5997 16.5564L97.5003 16.6612C95.3309 18.9873 92.0678 22.5018 88.3021 23.5764L87.2681 23.8672L86.7257 22.9353C84.7459 19.5102 81.9004 16.6645 78.474 14.683C75.0476 12.7014 71.1605 11.6535 67.2014 11.644Z" fill="#FF0055"/>
</svg>
