<svg width="54" height="42" viewBox="0 0 54 42" fill="none" xmlns="http://www.w3.org/2000/svg">
<path d="M0 41.64V29.0076C0 25.5246 0.675805 21.9637 2.02742 18.3247C3.43101 14.6858 5.22449 11.2807 7.40786 8.10966C9.64322 4.88659 11.9566 2.18337 14.3479 0L25.8106 6.2382C24.199 9.20135 22.6915 12.4764 21.2879 16.0634C19.9363 19.6503 19.2604 23.9911 19.2604 29.0856V41.64H0ZM27.3701 41.64V29.0076C27.3701 25.5246 28.0459 21.9637 29.3975 18.3247C30.8011 14.6858 32.5946 11.2807 34.778 8.10966C37.0133 4.88659 39.3267 2.18337 41.718 0L53.1807 6.2382C51.5691 9.20135 50.0616 12.4764 48.658 16.0634C47.3064 19.6503 46.6306 23.9911 46.6306 29.0856V41.64H27.3701Z" fill="#1A52D4"/>
</svg>
