<svg width="1113" height="538" viewBox="0 0 1113 538" fill="none" xmlns="http://www.w3.org/2000/svg">
<g opacity="0.62">
<path d="M1111 424.889C1017.42 368.699 913.032 327.671 832.697 360.69C742.01 397.966 740.614 505.51 664.018 515.534C582.392 526.213 549.231 408.569 440.527 406C405.311 405.169 399.174 417.308 238.134 496.645C102.064 563.69 0.103962 533.114 2.02675 443.779" stroke="#FF0055" stroke-width="3" stroke-linecap="round" stroke-linejoin="round"/>
<path d="M1106.47 191.011C1022.79 140.764 929.442 104.068 857.587 133.586C776.488 166.908 775.224 263.094 706.741 272.06C633.754 281.605 604.069 176.403 506.877 174.111C475.374 173.38 469.896 184.211 325.871 255.16C204.156 315.128 112.969 287.776 114.707 207.886" stroke="#FF0055" stroke-width="3" stroke-linecap="round" stroke-linejoin="round"/>
<path opacity="0.37" d="M606.756 0.805168C569.538 -3.95501 553.023 11.2322 396.224 77.6229C342.966 100.165 315.994 111.549 298.82 116.107C187.562 145.626 113.1 116.435 105.831 133.385C97.086 153.761 186.667 237.404 302.666 245.237C438.183 254.405 510.88 153.458 615.659 191.011C662.701 207.861 663.439 233.727 707.32 237.102C773.538 242.189 793.187 184.966 882.636 178.04C914.612 175.572 915.455 182.624 988.864 182.372C1049.6 182.171 1080.1 181.818 1086.9 169.376C1098.57 147.968 1052.55 88.3774 987.178 67.0951C891.276 35.8643 833.75 113.085 736.267 82.9372C662.885 60.2697 671.472 9.09141 606.756 0.805168Z" fill="url(#paint0_linear_8_449)"/>
<path opacity="0.37" d="M557.001 267.653C515.937 262.389 497.737 279.137 324.712 352.404C265.949 377.288 236.211 389.831 217.247 394.868C94.5048 427.434 12.3518 395.22 4.3182 413.934C-5.32207 436.4 93.5038 528.682 221.488 537.346C370.991 547.471 451.195 436.098 566.799 477.504C618.714 496.091 619.531 524.627 667.943 528.354C740.982 533.971 762.686 470.829 861.354 463.198C896.649 460.453 897.544 468.26 978.565 467.983C1045.57 467.757 1079.23 467.379 1086.71 453.652C1099.59 430.028 1048.81 364.292 976.695 340.818C870.889 306.364 807.41 391.568 699.892 358.298C618.951 333.263 628.433 276.77 557.027 267.627L557.001 267.653Z" fill="url(#paint1_linear_8_449)"/>
</g>
<defs>
<linearGradient id="paint0_linear_8_449" x1="105.199" y1="123.451" x2="1088.69" y2="123.451" gradientUnits="userSpaceOnUse">
<stop stop-color="#FF0055" stop-opacity="0.37"/>
<stop offset="1" stop-color="#FF0055" stop-opacity="0"/>
</linearGradient>
<linearGradient id="paint1_linear_8_449" x1="3.65971" y1="403.905" x2="1088.69" y2="403.905" gradientUnits="userSpaceOnUse">
<stop stop-color="#FF0055" stop-opacity="0"/>
<stop offset="1" stop-color="#FF0055" stop-opacity="0.37"/>
</linearGradient>
</defs>
</svg>
