<svg width="96" height="95" viewBox="0 0 96 95" fill="none" xmlns="http://www.w3.org/2000/svg">
<path d="M81.5104 13.4968C72.8083 4.79473 61.2366 0 48.9277 0C42.8377 0 36.9123 1.18079 31.3017 3.50659C25.6912 5.83239 20.6603 9.1887 16.3593 13.4968C7.65012 22.1917 2.86255 33.7635 2.86255 46.0723C2.86255 53.4075 4.63016 60.707 7.98647 67.2049L0.24334 89.3179C-0.30054 90.878 0.085901 92.574 1.25238 93.7405C2.0682 94.5563 3.1488 94.9928 4.25803 94.9928C4.73035 94.9928 5.20982 94.9141 5.68214 94.7495L27.8023 87.0064C34.3002 90.3627 41.5925 92.1303 48.9349 92.1303C61.2437 92.1303 72.8083 87.3356 81.5104 78.6335C90.2125 69.9314 95.0072 58.3597 95.0072 46.058C95.0072 33.7563 90.2125 22.1846 81.5104 13.4825V13.4968ZM77.5673 74.7119C69.9172 82.362 59.7481 86.5699 48.9277 86.5699C42.3081 86.5699 35.7386 84.9311 29.9134 81.8324C28.8614 81.2742 27.6091 81.174 26.4927 81.5676L6.39061 88.6022L13.4253 68.5002C13.8189 67.3766 13.7187 66.1314 13.1605 65.0795C10.0618 59.2614 8.423 52.6847 8.423 46.0652C8.423 35.2448 12.6381 25.0757 20.281 17.4256C27.9239 9.77552 38.1145 5.57476 48.9277 5.57476C59.7481 5.57476 69.9172 9.78983 77.5673 17.4399C85.2174 25.09 89.4324 35.2591 89.4324 46.0795C89.4324 56.8998 85.2174 67.0689 77.5673 74.719V74.7119Z" fill="#FF0055"/>
<path d="M66.0527 50.1871C63.9344 48.0688 60.4851 48.0688 58.3668 50.1871L56.0482 52.5057C50.2945 49.3713 45.6357 44.7125 42.5013 38.9588L44.8199 36.6402C46.9382 34.5219 46.9382 31.0726 44.8199 28.9543L38.5725 22.7069C36.4542 20.5886 33.0048 20.5886 30.8866 22.7069L25.8915 27.702C23.029 30.5645 22.8858 35.488 25.4907 41.5566C27.7521 46.8308 31.8885 52.6274 37.134 57.873C42.3868 63.1257 48.1762 67.2549 53.4504 69.5163C56.3344 70.7543 58.9608 71.3698 61.2293 71.3698C63.734 71.3698 65.8022 70.6183 67.305 69.1155L72.3001 64.1204C73.3306 63.0971 73.896 61.7302 73.896 60.2775C73.896 58.8248 73.3306 57.4579 72.3001 56.4345L66.0527 50.1871ZM63.3619 65.1796C62.5461 65.9954 60.0342 66.2816 55.6403 64.3995C51.003 62.4101 45.8289 58.6959 41.07 53.937C36.3111 49.1781 32.5969 44.004 30.6075 39.3667C28.7254 34.9728 29.0116 32.4609 29.8274 31.6451L34.7295 26.743L40.7838 32.7973L37.8854 35.7027C36.5758 37.0123 36.2538 39.0018 37.0983 40.6549C40.9126 48.1332 46.8809 54.1016 54.3664 57.9231C56.0195 58.7675 58.009 58.4455 59.3186 57.1359L62.2169 54.2376L68.2711 60.2918L63.3691 65.1939L63.3619 65.1796Z" fill="#FF0055"/>
</svg>
