<svg width="112" height="85" viewBox="0 0 112 85" fill="none" xmlns="http://www.w3.org/2000/svg">
<path d="M73.1911 37.6678L48.7452 24.2927C47.3425 23.527 45.6751 23.5556 44.3011 24.3714C42.9199 25.1872 42.0969 26.6328 42.0969 28.2358V54.7642C42.0969 56.3601 42.9127 57.7985 44.2868 58.6215C45.0024 59.0509 45.7968 59.2656 46.5911 59.2656C47.3211 59.2656 48.051 59.0867 48.7165 58.7217L73.1697 45.5756C74.6224 44.7955 75.5241 43.2855 75.5312 41.6396C75.5312 39.9936 74.6438 38.4765 73.1983 37.6821L73.1911 37.6678ZM48.5805 51.4151V31.5921L66.8506 41.5895L48.5805 51.4151Z" fill="#FF0055"/>
<path d="M110.676 20.4929V20.4428C110.576 19.5555 109.645 11.6263 105.795 7.59726C101.344 2.85978 96.2988 2.28012 93.8657 2.00818C93.6653 1.98671 93.4792 1.96524 93.3146 1.94378L93.1214 1.92231C78.4939 0.856017 56.3953 0.712891 56.1734 0.712891H56.1519H56.1305C55.9086 0.712891 33.8171 0.856017 19.0536 1.92231L18.8604 1.94378C18.703 1.96524 18.5312 1.98671 18.3451 2.00818C15.9478 2.28728 10.9527 2.85978 6.48712 7.77617C2.81593 11.7622 1.75684 19.5197 1.64949 20.3856L1.63517 20.5001C1.59938 20.8722 0.819336 29.6959 0.819336 38.5555V46.8353C0.819336 55.6948 1.59938 64.5185 1.63517 64.8907V64.9479C1.73535 65.821 2.66567 73.5999 6.50145 77.6361C10.6879 82.2161 15.9836 82.8244 18.8246 83.1464C19.2755 83.1965 19.6619 83.2394 19.9267 83.2895L20.1843 83.3253C28.6288 84.1268 55.1143 84.5276 56.2378 84.5419H56.2736H56.3094C56.5312 84.5419 78.6227 84.3988 93.2574 83.3325L93.4506 83.311C93.6367 83.2895 93.8442 83.2681 94.0732 83.2394C96.4563 82.989 101.423 82.4594 105.831 77.6146C109.502 73.6285 110.561 65.8711 110.669 65.0052L110.683 64.8907C110.719 64.5185 111.499 55.6948 111.499 46.8353V38.5555C111.499 29.6959 110.719 20.8722 110.683 20.5001L110.676 20.4929ZM105.008 46.8281C105.008 55.0293 104.292 63.4737 104.228 64.2466C103.956 66.3792 102.833 71.2884 101.043 73.2278C98.2883 76.262 95.4544 76.5626 93.3862 76.7773C93.1358 76.8059 92.9067 76.8274 92.692 76.856C78.544 77.8794 57.2826 78.0368 56.3022 78.044C55.2073 78.0296 29.1082 77.6289 20.9143 76.8703C20.492 76.7988 20.0412 76.7487 19.5617 76.6986C17.1357 76.4195 13.8224 76.0402 11.2676 73.2349L11.2103 73.1705C9.45702 71.3385 8.36927 66.7513 8.09017 64.2752C8.04008 63.6884 7.30295 55.1438 7.30295 46.8281V38.5483C7.30295 30.3615 8.0186 21.9242 8.08301 21.1298C8.4122 18.618 9.55006 14.0093 11.2676 12.1415C14.1086 9.01421 17.1 8.67071 19.0823 8.4417C19.2683 8.42024 19.4472 8.39877 19.6118 8.3773C33.9674 7.34679 55.379 7.19651 56.1519 7.18935C56.9177 7.18935 78.3293 7.34679 92.5561 8.3773C92.7278 8.39877 92.921 8.42024 93.1286 8.4417C95.1681 8.67071 98.2454 9.02852 101.072 12.0413L101.101 12.07C102.854 13.902 103.942 18.5679 104.221 21.0941C104.271 21.6451 105.008 30.2112 105.008 38.5411V46.821V46.8281Z" fill="#FF0055"/>
</svg>
